<svg xmlns="http://www.w3.org/2000/svg" width="14.548" height="14.608" viewBox="0 0 14.548 14.608">
  <g id="remove" transform="translate(-7.416 -7.346)" opacity="0.29">
    <path id="Path_84" data-name="Path 84" d="M139.89,126.922a.834.834,0,0,0-1.179,0l-5.305,5.305-5.305-5.305a.834.834,0,0,0-1.2,1.158l.02.021,5.305,5.305-5.305,5.305a.834.834,0,0,0,1.158,1.2l.021-.02,5.305-5.305,5.305,5.305a.834.834,0,0,0,1.179-1.179l-5.305-5.305,5.305-5.305a.834.834,0,0,0,0-1.179Zm0,0" transform="translate(-118.751 -118.751)" stroke="#000" stroke-linejoin="bevel" stroke-width="1"/>
  </g>
</svg>
