<svg width="18" height="18" viewBox="0 0 18 18" fill="none" xmlns="http://www.w3.org/2000/svg">
<path d="M15.7411 8.68443C16.0863 9.17157 16.0863 9.82921 15.7411 10.3156C14.6539 11.8469 12.0455 15 9.00011 15C5.95475 15 3.34631 11.8469 2.2591 10.3156C2.09116 10.0823 2 9.79536 2 9.5C2 9.20464 2.09116 8.91768 2.2591 8.68443C3.34631 7.15307 5.95475 4 9.00011 4C12.0455 4 14.6539 7.15307 15.7411 8.68443V8.68443Z" stroke="#313131" stroke-width="2" stroke-linecap="round" stroke-linejoin="round"/>
<path d="M9 12C10.1046 12 11 10.8807 11 9.5C11 8.11929 10.1046 7 9 7C7.89543 7 7 8.11929 7 9.5C7 10.8807 7.89543 12 9 12Z" stroke="#313131" stroke-width="2" stroke-linecap="round" stroke-linejoin="round"/>
<path d="M5.34704 13C3.97045 12.0279 2.88111 10.7635 2.26556 9.96512C2.09344 9.74473 2 9.4736 2 9.19453C2 8.91547 2.09344 8.64434 2.26556 8.42394C3.37952 6.97774 6.05213 4 9.1724 4C10.5721 4 11.8808 4.59881 13 5.39055" stroke="#313131" stroke-width="2" stroke-linecap="round" stroke-linejoin="round"/>
<path d="M11 7.69773C10.7838 7.47794 10.5263 7.30313 10.2422 7.18338C9.95818 7.06363 9.65323 7.00131 9.34497 7.00002C9.03671 6.99873 8.73125 7.05849 8.4462 7.17585C8.16115 7.29322 7.90215 7.46586 7.68416 7.68383C7.46616 7.9018 7.29347 8.16078 7.17605 8.44583C7.05863 8.73088 6.9988 9.03636 7.00002 9.34465C7.00124 9.65294 7.06348 9.95793 7.18315 10.242C7.30282 10.5262 7.47755 10.7838 7.69727 11" stroke="#313131" stroke-width="2" stroke-linecap="round" stroke-linejoin="round"/>
<path d="M3 15L15 3" stroke="#313131" stroke-width="2" stroke-linecap="round" stroke-linejoin="round"/>
<path d="M8 14.7632C8.44724 14.9178 8.91119 14.9975 9.37782 15C12.2588 15 14.7265 11.7896 15.7551 10.2304C15.9139 9.99257 16.0001 9.70007 16 9.39906C15.9999 9.09805 15.9135 8.80566 15.7544 8.568C15.3929 8.02039 15.0051 7.49689 14.5929 7" stroke="#313131" stroke-width="2" stroke-linecap="round" stroke-linejoin="round"/>
</svg>
