<svg width="18" height="18" viewBox="0 0 18 18" fill="none" xmlns="http://www.w3.org/2000/svg">
<path d="M15.7411 8.68443C16.0863 9.17157 16.0863 9.82921 15.7411 10.3156C14.6539 11.8469 12.0455 15 9.00011 15C5.95475 15 3.34631 11.8469 2.2591 10.3156C2.09116 10.0823 2 9.79536 2 9.5C2 9.20464 2.09116 8.91768 2.2591 8.68443C3.34631 7.15307 5.95475 4 9.00011 4C12.0455 4 14.6539 7.15307 15.7411 8.68443V8.68443Z" stroke="#313131" stroke-width="2" stroke-linecap="round" stroke-linejoin="round"/>
<path d="M9 12C10.1046 12 11 10.8807 11 9.5C11 8.11929 10.1046 7 9 7C7.89543 7 7 8.11929 7 9.5C7 10.8807 7.89543 12 9 12Z" stroke="#313131" stroke-width="2" stroke-linecap="round" stroke-linejoin="round"/>
</svg>
