<svg width="18" height="18" viewBox="0 0 18 18" fill="none" xmlns="http://www.w3.org/2000/svg">
<g clip-path="url(#clip0_94_263)">
<path d="M6.13542 1.62H5.95833C6.05573 1.62 6.13542 1.539 6.13542 1.44V1.62H12.8646V1.44C12.8646 1.539 12.9443 1.62 13.0417 1.62H12.8646V3.24H14.4583V1.44C14.4583 0.64575 13.823 0 13.0417 0H5.95833C5.17695 0 4.54167 0.64575 4.54167 1.44V3.24H6.13542V1.62ZM17.2917 3.24H1.70833C1.31654 3.24 1 3.56175 1 3.96V4.68C1 4.779 1.07969 4.86 1.17708 4.86H2.51406L3.06081 16.6275C3.09622 17.3948 3.72044 18 4.47526 18H14.5247C15.2818 18 15.9038 17.397 15.9392 16.6275L16.4859 4.86H17.8229C17.9203 4.86 18 4.779 18 4.68V3.96C18 3.56175 17.6835 3.24 17.2917 3.24ZM14.3543 16.38H4.6457L4.11003 4.86H14.89L14.3543 16.38Z" fill="#313131"/>
</g>
<defs>
<clipPath id="clip0_94_263">
<rect width="18" height="18" fill="white"/>
</clipPath>
</defs>
</svg>
