<svg width="18" height="18" viewBox="0 0 18 18" fill="none" xmlns="http://www.w3.org/2000/svg">
<path d="M15.2678 6.83317C15.5001 7.05735 15.6843 7.32346 15.8099 7.61631C15.9356 7.90915 16.0001 8.22298 16 8.5399C15.9999 8.85681 15.935 9.17059 15.8091 9.46333C15.6832 9.75606 15.4988 10.022 15.2663 10.246L9.72747 15.5794C9.52285 15.7761 9.27093 15.9208 8.99419 16.0008L5.65597 16.9682C5.5202 17.0076 5.37585 17.0104 5.23853 16.9764C5.10121 16.9424 4.97614 16.8729 4.87685 16.7753C4.77757 16.6776 4.70784 16.5557 4.67522 16.4227C4.64259 16.2896 4.64831 16.1505 4.69175 16.0203L5.75083 12.8497C5.83637 12.5947 5.98411 12.3623 6.18007 12.1725L11.7267 6.83242C11.9593 6.60826 12.2354 6.43049 12.5392 6.30925C12.8431 6.18802 13.1687 6.12569 13.4976 6.12583C13.8264 6.12597 14.152 6.18857 14.4557 6.31006C14.7595 6.43156 15.0354 6.60956 15.2678 6.83392V6.83317ZM12.5509 7.62807L7.00432 12.9674C6.9387 13.0306 6.88965 13.108 6.86124 13.1932L6.02921 15.6851L8.65905 14.9239C8.75127 14.8971 8.83516 14.8487 8.90321 14.783L14.4413 9.4511C14.692 9.20935 14.833 8.88143 14.833 8.53948C14.8331 8.19752 14.6923 7.86954 14.4416 7.6277C14.191 7.38585 13.8509 7.24994 13.4964 7.24987C13.1418 7.2498 12.8017 7.38557 12.5509 7.62732V7.62807ZM6.00433 2.27746L6.04321 2.3562L8.57273 8.54221L7.67305 9.40836L7.09763 7.99928H3.89937L3.12567 9.88905C3.07402 10.0157 2.97655 10.1199 2.8513 10.1825C2.72606 10.2451 2.58153 10.2618 2.44449 10.2295L2.36829 10.2063C2.2373 10.1562 2.12954 10.0621 2.06493 9.94131C2.00032 9.82055 1.98322 9.68131 2.01681 9.54934L2.04014 9.47585L4.95924 2.35545C5.14275 1.90925 5.77027 1.88301 6.00511 2.27746H6.00433ZM5.50045 4.09374L4.36049 6.87441H6.63729L5.50122 4.09374H5.50045Z" fill="#313131"/>
</svg>
