<svg width="21" height="21" viewBox="0 0 21 21" fill="none" xmlns="http://www.w3.org/2000/svg">
<path d="M9.00472 11.3026C9.72848 12.2854 10.8368 12.9005 12.0421 12.9882C13.2473 13.0759 14.4306 12.6275 15.2849 11.7594L17.7837 9.22128C19.4105 7.5697 19.4105 4.89123 17.7841 3.2392C16.1577 1.58718 13.5209 1.58718 11.8945 3.2392L10.4623 4.68642" stroke="#F49D89" stroke-width="3" stroke-linecap="round" stroke-linejoin="round"/>
<path d="M11.9997 9.69441C11.2759 8.71155 10.1676 8.09646 8.96236 8.00878C7.75711 7.9211 6.57379 8.36947 5.71952 9.23753L3.22077 11.7757C1.59396 13.4273 1.59396 16.1057 3.22033 17.7578C4.8467 19.4098 7.48357 19.4098 9.10994 17.7578L10.5338 16.3106" stroke="#F49D89" stroke-width="3" stroke-linecap="round" stroke-linejoin="round"/>
</svg>
