<svg width="18" height="18" viewBox="0 0 18 18" fill="none" xmlns="http://www.w3.org/2000/svg">
<g clip-path="url(#clip0_5_863)">
<path d="M2 9.5C2 13.6422 5.35775 17 9.5 17C13.6422 17 17 13.6422 17 9.5C17 5.35775 13.6422 2 9.5 2C5.35775 2 2 5.35775 2 9.5Z" stroke="#313131" stroke-linecap="round" stroke-linejoin="round"/>
<path d="M10 2C10 2 12 4.97739 12 9.5C12 14.0226 10 17 10 17" stroke="#313131" stroke-linecap="round" stroke-linejoin="round"/>
<path d="M9 17C9 17 7 14.0226 7 9.5C7 4.97739 9 2 9 2" stroke="#313131" stroke-linecap="round" stroke-linejoin="round"/>
<path d="M2 12H16" stroke="#313131" stroke-linecap="round" stroke-linejoin="round"/>
<path d="M2 7H16" stroke="#313131" stroke-linecap="round" stroke-linejoin="round"/>
</g>
<defs>
<clipPath id="clip0_5_863">
<rect width="18" height="18" fill="white"/>
</clipPath>
</defs>
</svg>
