<svg width="18" height="18" viewBox="0 0 18 18" fill="none" xmlns="http://www.w3.org/2000/svg">
<path fill-rule="evenodd" clip-rule="evenodd" d="M4.00262 7.99531C3.73759 7.99531 3.48345 8.1011 3.29607 8.28944C3.10851 8.47781 3.00326 8.73338 3.00326 8.99976C3.00326 9.26617 3.10851 9.52175 3.29607 9.71012C3.48345 9.89848 3.73763 10.0042 4.00262 10.0042C4.2678 10.0042 4.52198 9.89847 4.70933 9.71012C4.89674 9.52175 5.00214 9.26617 5.00214 8.99976C5.00214 8.73338 4.89674 8.47781 4.70933 8.28944C4.52198 8.1011 4.2678 7.99531 4.00262 7.99531ZM4.00262 12.0031C3.20758 12.0031 2.44495 11.6867 1.88262 11.1234C1.32026 10.5603 1.00439 9.79636 1.00439 8.99978C1.00439 8.20324 1.32026 7.4393 1.88262 6.87617C2.44494 6.31289 3.20757 5.99646 4.00262 5.99646C4.79784 5.99646 5.56047 6.31289 6.1228 6.87617C6.68497 7.4393 7.00087 8.20324 7.00087 8.99978C7.00087 9.79636 6.68497 10.5603 6.1228 11.1234C5.56048 11.6867 4.79785 12.0031 4.00262 12.0031Z" fill="white"/>
<path fill-rule="evenodd" clip-rule="evenodd" d="M1.99906 16.0007H5.99667C5.99667 15.7344 5.89141 15.4789 5.70386 15.2905C5.51649 15.1021 5.26231 14.9963 4.99732 14.9963H2.99844C2.73341 14.9963 2.47908 15.1021 2.29169 15.2905C2.10431 15.4789 1.99908 15.7344 1.99908 16.0007H1.99906ZM6.99586 17.9997H0.999371C0.734345 17.9997 0.480203 17.8943 0.292802 17.7065C0.105218 17.519 0 17.2645 0 16.9993V15.9987C0 15.2029 0.315878 14.4395 0.878223 13.8766C1.4404 13.3136 2.20306 12.9974 2.99825 12.9974H4.99714C5.7922 12.9974 6.55483 13.3136 7.11717 13.8766C7.67949 14.4394 7.99539 15.2029 7.99539 15.9987V16.9993C7.99539 17.2646 7.88999 17.519 7.70259 17.7065C7.51519 17.8943 7.26103 17.9997 6.99587 17.9997H6.99586Z" fill="white"/>
<path fill-rule="evenodd" clip-rule="evenodd" d="M13.9972 1.99888C13.732 1.99888 13.4779 2.10412 13.2905 2.29151C13.1031 2.4789 12.9977 2.7332 12.9977 2.99824C12.9977 3.26329 13.1031 3.51758 13.2905 3.70498C13.4779 3.89238 13.732 3.99759 13.9972 3.99759C14.2623 3.99759 14.5164 3.89237 14.7038 3.70498C14.8913 3.51758 14.9966 3.26329 14.9966 2.99824C14.9966 2.7332 14.8913 2.4789 14.7038 2.29151C14.5164 2.10412 14.2622 1.99888 13.9972 1.99888ZM13.9972 5.99649C13.202 5.99649 12.4394 5.68061 11.877 5.11826C11.3149 4.5561 10.999 3.79347 10.999 2.99824C10.999 2.20303 11.3149 1.4404 11.877 0.878223C12.4394 0.315888 13.202 0 13.9972 0C14.7923 0 15.5549 0.315888 16.1173 0.878223C16.6796 1.44039 16.9955 2.20302 16.9955 2.99824C16.9955 3.79346 16.6796 4.55609 16.1173 5.11826C15.5549 5.68061 14.7923 5.99649 13.9972 5.99649Z" fill="white"/>
<path fill-rule="evenodd" clip-rule="evenodd" d="M12.0032 10.0043H16.0008C16.0008 9.73794 15.8956 9.48252 15.7082 9.29415C15.5208 9.10564 15.2665 8.99985 15.0015 8.99985H13.0026C12.7375 8.99985 12.4834 9.10564 12.296 9.29415C12.1084 9.48252 12.0032 9.73797 12.0032 10.0043H12.0032ZM17.0004 12.0032H11.0039C10.7387 12.0032 10.4846 11.8979 10.2972 11.7101C10.1098 11.5225 10.0044 11.2681 10.0044 11.0028V10.0022C10.0044 9.2064 10.3203 8.443 10.8826 7.88009C11.445 7.3172 12.2076 7.00098 13.0026 7.00098H15.0016C15.7967 7.00098 16.5594 7.3172 17.1216 7.88009C17.6839 8.44299 17.9998 9.20639 17.9998 10.0022V11.0028C17.9998 11.2681 17.8945 11.5225 17.707 11.7101C17.5196 11.8979 17.2654 12.0032 17.0004 12.0032Z" fill="white"/>
<path fill-rule="evenodd" clip-rule="evenodd" d="M1.00039 5.99652C0.735099 5.99652 0.48071 5.89128 0.293129 5.70373C0.105386 5.51633 3.04877e-05 5.26216 3.04877e-05 4.99716V3.99762C3.04877e-05 2.93736 0.421584 1.9206 1.17209 1.17087C1.92258 0.421138 2.94037 0 4.00171 0H9.00399C9.36139 0 9.69166 0.190569 9.87037 0.499768C10.0491 0.808976 10.0491 1.18991 9.87037 1.49913C9.69165 1.80834 9.36139 1.9989 9.00399 1.9989H4.00171C3.4711 1.9989 2.96213 2.20938 2.58697 2.58433C2.21165 2.95911 2.00097 3.46756 2.00097 3.99761V4.99715C2.00097 5.26217 1.89541 5.51632 1.70787 5.70372C1.52025 5.89127 1.26585 5.99651 1.00038 5.99651L1.00039 5.99652Z" fill="white"/>
<path fill-rule="evenodd" clip-rule="evenodd" d="M14 17.9996H9.99998C9.64271 17.9996 9.31256 17.8088 9.13394 17.4993C8.95533 17.1898 8.95533 16.8084 9.13394 16.4989C9.31256 16.1894 9.64268 15.9986 9.99998 15.9986H14C14.5303 15.9986 15.039 15.788 15.4141 15.4126C15.7892 15.0375 15.9998 14.5286 15.9998 13.9979C15.9998 13.6406 16.1905 13.3102 16.4999 13.1316C16.8092 12.9529 17.1904 12.9529 17.4998 13.1316C17.8092 13.3102 17.9999 13.6406 17.9999 13.9979C17.9999 15.0593 17.5785 16.077 16.8283 16.8275C16.0782 17.578 15.0608 17.9996 14 17.9996H14Z" fill="white"/>
</svg>
