<svg width="18" height="18" viewBox="0 0 18 18" fill="none" xmlns="http://www.w3.org/2000/svg">
<g opacity="0.7">
<path d="M15.125 15V13.75H15.75V11.25H13.25V11.875H12V10.625C12 10.4592 12.0658 10.3003 12.1831 10.1831C12.3003 10.0658 12.4592 10 12.625 10H16.375C16.5408 10 16.6997 10.0658 16.8169 10.1831C16.9342 10.3003 17 10.4592 17 10.625V14.375C17 14.5408 16.9342 14.6997 16.8169 14.8169C16.6997 14.9342 16.5408 15 16.375 15H15.125Z" fill="#313131"/>
<path d="M15.125 15V13.75H15.75V11.25H13.25V11.875H12V10.625C12 10.4592 12.0658 10.3003 12.1831 10.1831C12.3003 10.0658 12.4592 10 12.625 10H16.375C16.5408 10 16.6997 10.0658 16.8169 10.1831C16.9342 10.3003 17 10.4592 17 10.625V14.375C17 14.5408 16.9342 14.6997 16.8169 14.8169C16.6997 14.9342 16.5408 15 16.375 15H15.125Z" stroke="#313131"/>
<path d="M14.375 17H10.625C10.4592 17 10.3003 16.9342 10.1831 16.8169C10.0658 16.6997 10 16.5408 10 16.375V12.625C10 12.4592 10.0658 12.3003 10.1831 12.1831C10.3003 12.0658 10.4592 12 10.625 12H14.375C14.5408 12 14.6997 12.0658 14.8169 12.1831C14.9342 12.3003 15 12.4592 15 12.625V16.375C15 16.5408 14.9342 16.6997 14.8169 16.8169C14.6997 16.9342 14.5408 17 14.375 17ZM11.25 15.75H13.75V13.25H11.25V15.75Z" fill="#313131"/>
<path d="M14.375 17H10.625C10.4592 17 10.3003 16.9342 10.1831 16.8169C10.0658 16.6997 10 16.5408 10 16.375V12.625C10 12.4592 10.0658 12.3003 10.1831 12.1831C10.3003 12.0658 10.4592 12 10.625 12H14.375C14.5408 12 14.6997 12.0658 14.8169 12.1831C14.9342 12.3003 15 12.4592 15 12.625V16.375C15 16.5408 14.9342 16.6997 14.8169 16.8169C14.6997 16.9342 14.5408 17 14.375 17ZM11.25 15.75H13.75V13.25H11.25V15.75Z" stroke="#313131"/>
<path d="M8.91666 11.7946C8.49517 11.6839 8.11293 11.4565 7.81333 11.1381C7.51373 10.8197 7.30879 10.4231 7.22178 9.99332C7.13477 9.56352 7.16917 9.11776 7.32108 8.70667C7.47299 8.29557 7.73632 7.9356 8.08117 7.66764C8.42602 7.39968 8.83857 7.23447 9.27197 7.19076C9.70538 7.14705 10.1423 7.22659 10.533 7.42036C10.9238 7.61413 11.2528 7.91436 11.4826 8.28696C11.7125 8.65955 11.834 9.08958 11.8333 9.52822H13C13.0007 8.85607 12.8105 8.19775 12.4519 7.63086C12.0933 7.06398 11.5812 6.61218 10.976 6.32873C10.3708 6.04528 9.6977 5.94201 9.03614 6.03109C8.37458 6.12018 7.7521 6.39789 7.24211 6.8315C6.73213 7.26511 6.35588 7.83653 6.15776 8.47838C5.95963 9.12024 5.94788 9.80575 6.12389 10.4541C6.29989 11.1025 6.65632 11.6866 7.15115 12.1377C7.64597 12.5888 8.25855 12.888 8.91666 13V11.7946Z" fill="#313131"/>
<path d="M8.91666 11.7946C8.49517 11.6839 8.11293 11.4565 7.81333 11.1381C7.51373 10.8197 7.30879 10.4231 7.22178 9.99332C7.13477 9.56352 7.16917 9.11776 7.32108 8.70667C7.47299 8.29557 7.73632 7.9356 8.08117 7.66764C8.42602 7.39968 8.83857 7.23447 9.27197 7.19076C9.70538 7.14705 10.1423 7.22659 10.533 7.42036C10.9238 7.61413 11.2528 7.91436 11.4826 8.28696C11.7125 8.65955 11.834 9.08958 11.8333 9.52822H13C13.0007 8.85607 12.8105 8.19775 12.4519 7.63086C12.0933 7.06398 11.5812 6.61218 10.976 6.32873C10.3708 6.04528 9.6977 5.94201 9.03614 6.03109C8.37458 6.12018 7.7521 6.39789 7.24211 6.8315C6.73213 7.26511 6.35588 7.83653 6.15776 8.47838C5.95963 9.12024 5.94788 9.80575 6.12389 10.4541C6.29989 11.1025 6.65632 11.6866 7.15115 12.1377C7.64597 12.5888 8.25855 12.888 8.91666 13V11.7946Z" stroke="#313131"/>
<path d="M15.6234 7.6L14.3468 8.76L13.5621 7.94857L14.8939 6.73714L13.5897 4.40571L11.6887 5.06857C11.2434 4.6853 10.739 4.38203 10.1966 4.17143L9.8042 2.14286H7.1958L6.80343 4.17143C6.25666 4.37615 5.74953 4.67994 5.30581 5.06857L3.4103 4.40571L2.10609 6.73714L3.60924 8.10286C3.507 8.69436 3.507 9.29992 3.60924 9.89143L2.10609 11.2629L3.4103 13.5943L5.31134 12.9314C5.75665 13.3147 6.26102 13.618 6.80343 13.8286L7.1958 15.8571H7.94737V17H7.1958C6.94023 16.9998 6.69262 16.908 6.49514 16.7403C6.29765 16.5725 6.16248 16.3392 6.11265 16.08L5.83081 14.64C5.58061 14.5138 5.33877 14.3707 5.10686 14.2114L3.76398 14.68C3.64978 14.7184 3.53038 14.7377 3.4103 14.7371C3.21617 14.7385 3.02521 14.6863 2.85714 14.5858C2.68907 14.4854 2.54998 14.3403 2.45425 14.1657L1.15005 11.8343C1.02106 11.6051 0.973123 11.3368 1.01446 11.0751C1.05579 10.8134 1.18382 10.5748 1.37662 10.4L2.43767 9.44C2.42662 9.29143 2.42109 9.14857 2.42109 9C2.42109 8.85143 2.43214 8.70857 2.4432 8.56571L1.37662 7.6C1.18382 7.42522 1.05579 7.18655 1.01446 6.92489C0.973123 6.66323 1.02106 6.39485 1.15005 6.16571L2.45425 3.83429C2.54998 3.65966 2.68907 3.51462 2.85714 3.41417C3.02521 3.31371 3.21617 3.26148 3.4103 3.26286C3.53038 3.26229 3.64978 3.28158 3.76398 3.32L5.10134 3.78857C5.33513 3.62932 5.57882 3.48615 5.83081 3.36L6.11265 1.92C6.16248 1.66081 6.29765 1.42748 6.49514 1.25974C6.69262 1.092 6.94023 1.00021 7.1958 1H9.8042C10.0598 1.00021 10.3074 1.092 10.5049 1.25974C10.7024 1.42748 10.8375 1.66081 10.8874 1.92L11.1692 3.36C11.4194 3.48618 11.6612 3.62935 11.8931 3.78857L13.236 3.32C13.3502 3.28158 13.4696 3.26229 13.5897 3.26286C13.7838 3.26148 13.9748 3.31371 14.1429 3.41417C14.3109 3.51462 14.45 3.65966 14.5458 3.83429L15.85 6.16571C15.9789 6.39485 16.0269 6.66323 15.9855 6.92489C15.9442 7.18655 15.8162 7.42522 15.6234 7.6Z" fill="#313131"/>
<path d="M15.6234 7.6L14.3468 8.76L13.5621 7.94857L14.8939 6.73714L13.5897 4.40571L11.6887 5.06857C11.2434 4.6853 10.739 4.38203 10.1966 4.17143L9.8042 2.14286H7.1958L6.80343 4.17143C6.25666 4.37615 5.74953 4.67994 5.30581 5.06857L3.4103 4.40571L2.10609 6.73714L3.60924 8.10286C3.507 8.69436 3.507 9.29992 3.60924 9.89143L2.10609 11.2629L3.4103 13.5943L5.31134 12.9314C5.75665 13.3147 6.26102 13.618 6.80343 13.8286L7.1958 15.8571H7.94737V17H7.1958C6.94023 16.9998 6.69262 16.908 6.49514 16.7403C6.29765 16.5725 6.16248 16.3392 6.11265 16.08L5.83081 14.64C5.58061 14.5138 5.33877 14.3707 5.10686 14.2114L3.76398 14.68C3.64978 14.7184 3.53038 14.7377 3.4103 14.7371C3.21617 14.7385 3.02521 14.6863 2.85714 14.5858C2.68907 14.4854 2.54998 14.3403 2.45425 14.1657L1.15005 11.8343C1.02106 11.6051 0.973123 11.3368 1.01446 11.0751C1.05579 10.8134 1.18382 10.5748 1.37662 10.4L2.43767 9.44C2.42662 9.29143 2.42109 9.14857 2.42109 9C2.42109 8.85143 2.43214 8.70857 2.4432 8.56571L1.37662 7.6C1.18382 7.42522 1.05579 7.18655 1.01446 6.92489C0.973123 6.66323 1.02106 6.39485 1.15005 6.16571L2.45425 3.83429C2.54998 3.65966 2.68907 3.51462 2.85714 3.41417C3.02521 3.31371 3.21617 3.26148 3.4103 3.26286C3.53038 3.26229 3.64978 3.28158 3.76398 3.32L5.10134 3.78857C5.33513 3.62932 5.57882 3.48615 5.83081 3.36L6.11265 1.92C6.16248 1.66081 6.29765 1.42748 6.49514 1.25974C6.69262 1.092 6.94023 1.00021 7.1958 1H9.8042C10.0598 1.00021 10.3074 1.092 10.5049 1.25974C10.7024 1.42748 10.8375 1.66081 10.8874 1.92L11.1692 3.36C11.4194 3.48618 11.6612 3.62935 11.8931 3.78857L13.236 3.32C13.3502 3.28158 13.4696 3.26229 13.5897 3.26286C13.7838 3.26148 13.9748 3.31371 14.1429 3.41417C14.3109 3.51462 14.45 3.65966 14.5458 3.83429L15.85 6.16571C15.9789 6.39485 16.0269 6.66323 15.9855 6.92489C15.9442 7.18655 15.8162 7.42522 15.6234 7.6Z" stroke="#313131"/>
</g>
</svg>
