<svg width="20" height="20" viewBox="0 0 20 20" fill="none" xmlns="http://www.w3.org/2000/svg">
<path fill-rule="evenodd" clip-rule="evenodd" d="M2.76923 0H2.69231C2.34 0 2.03692 1.14615e-08 1.76923 0.0630721C1.35482 0.162087 0.975923 0.373889 0.674509 0.675009C0.373094 0.976129 0.160935 1.35481 0.0615384 1.76909C-5.73122e-08 2.03677 0 2.33828 0 2.6921V6.53796C0 6.89024 1.14624e-08 7.19329 0.0630769 7.46096C0.1621 7.87534 0.373917 8.25421 0.675061 8.5556C0.976204 8.85699 1.35491 9.06914 1.76923 9.16853C2.03692 9.23006 2.33846 9.23006 2.69231 9.23006H6.53846C6.89077 9.23006 7.19385 9.23006 7.46154 9.16699C7.87594 9.06797 8.25485 8.85617 8.55626 8.55505C8.85768 8.25393 9.06983 7.87525 9.16923 7.46096C9.23077 7.19329 9.23077 6.89178 9.23077 6.53796V2.6921C9.23077 2.33982 9.23077 2.03677 9.16769 1.76909C9.06867 1.35472 8.85685 0.975848 8.55571 0.674457C8.25457 0.373065 7.87585 0.160922 7.46154 0.0615337C7.19385 -5.73078e-08 6.89231 0 6.53846 0H2.76923ZM2.12769 1.55988C2.19385 1.5445 2.29692 1.53834 2.76923 1.53834H6.46154C6.93538 1.53834 7.03692 1.54296 7.10308 1.55988C7.24128 1.59293 7.36762 1.6636 7.4681 1.76407C7.56858 1.86454 7.63926 1.99088 7.67231 2.12907C7.68769 2.19368 7.69231 2.29521 7.69231 2.76902V6.46104C7.69231 6.93485 7.68769 7.03638 7.67077 7.10253C7.63772 7.24072 7.56704 7.36705 7.46656 7.46752C7.36608 7.56799 7.23974 7.63867 7.10154 7.67172C7.03846 7.68556 6.93692 7.69172 6.46154 7.69172H2.76923C2.29538 7.69172 2.19385 7.6871 2.12769 7.67018C1.98949 7.63713 1.86315 7.56646 1.76267 7.46599C1.66219 7.36552 1.59151 7.23918 1.55846 7.10099C1.54462 7.03792 1.53846 6.93639 1.53846 6.46104V2.76902C1.53846 2.29521 1.54308 2.19368 1.56 2.12753C1.59305 1.98934 1.66373 1.863 1.76421 1.76253C1.86469 1.66206 1.99103 1.59139 2.12923 1.55834L2.12769 1.55988ZM13.5385 0H13.4615C13.1092 0 12.8062 1.14615e-08 12.5385 0.0630721C12.1241 0.162087 11.7452 0.373889 11.4437 0.675009C11.1423 0.976129 10.9302 1.35481 10.8308 1.76909C10.7692 2.03677 10.7692 2.33828 10.7692 2.6921V6.53796C10.7692 6.89024 10.7692 7.19329 10.8323 7.46096C10.9313 7.87534 11.1431 8.25421 11.4443 8.5556C11.7454 8.85699 12.1241 9.06914 12.5385 9.16853C12.8062 9.23006 13.1077 9.23006 13.4615 9.23006H17.3077C17.66 9.23006 17.9631 9.23006 18.2308 9.16699C18.6452 9.06797 19.0241 8.85617 19.3255 8.55505C19.6269 8.25393 19.8391 7.87525 19.9385 7.46096C20 7.19329 20 6.89178 20 6.53796V2.6921C20 2.33982 20 2.03677 19.9369 1.76909C19.8379 1.35472 19.6261 0.975848 19.3249 0.674457C19.0238 0.373065 18.6451 0.160922 18.2308 0.0615337C17.9631 -5.73078e-08 17.6615 0 17.3077 0H13.5385ZM12.8969 1.55988C12.9631 1.5445 13.0662 1.53834 13.5385 1.53834H17.2308C17.7046 1.53834 17.8062 1.54296 17.8723 1.55988C18.0105 1.59293 18.1369 1.6636 18.2373 1.76407C18.3378 1.86454 18.4085 1.99088 18.4415 2.12907C18.4569 2.19368 18.4615 2.29521 18.4615 2.76902V6.46104C18.4615 6.93485 18.4554 7.03638 18.44 7.10253C18.407 7.24072 18.3363 7.36705 18.2358 7.46752C18.1353 7.56799 18.009 7.63867 17.8708 7.67172C17.8062 7.6871 17.7046 7.69172 17.2308 7.69172H13.5385C13.0646 7.69172 12.9631 7.6871 12.8969 7.67018C12.7587 7.63713 12.6324 7.56646 12.5319 7.46599C12.4314 7.36552 12.3607 7.23918 12.3277 7.10099C12.3138 7.03792 12.3077 6.93639 12.3077 6.46104V2.76902C12.3077 2.29521 12.3123 2.19368 12.3292 2.12753C12.3623 1.98934 12.433 1.863 12.5334 1.76253C12.6339 1.66206 12.7603 1.59139 12.8985 1.55834L12.8969 1.55988ZM2.69231 10.7684H6.53846C6.89077 10.7684 7.19385 10.7684 7.46154 10.8315C7.87594 10.9305 8.25485 11.1423 8.55626 11.4434C8.85768 11.7445 9.06983 12.1232 9.16923 12.5375C9.23077 12.8052 9.23077 13.1067 9.23077 13.4605V17.3064C9.23077 17.6586 9.23077 17.9617 9.16769 18.2294C9.06867 18.6437 8.85685 19.0226 8.55571 19.324C8.25457 19.6254 7.87585 19.8375 7.46154 19.9369C7.19385 19.9985 6.89231 19.9985 6.53846 19.9985H2.69231C2.34 19.9985 2.03692 19.9985 1.76923 19.9354C1.35482 19.8364 0.975923 19.6246 0.674509 19.3235C0.373094 19.0223 0.160935 18.6437 0.0615384 18.2294C-5.73122e-08 17.9617 0 17.6602 0 17.3064V13.4605C0 13.1082 1.14624e-08 12.8052 0.0630769 12.5375C0.1621 12.1231 0.373917 11.7443 0.675061 11.4429C0.976204 11.1415 1.35491 10.9293 1.76923 10.8299C2.03692 10.7684 2.33846 10.7684 2.69231 10.7684ZM2.76923 12.3067C2.29538 12.3067 2.19385 12.3114 2.12769 12.3283C1.98949 12.3613 1.86315 12.432 1.76267 12.5325C1.66219 12.6329 1.59151 12.7593 1.55846 12.8975C1.54462 12.9605 1.53846 13.0621 1.53846 13.5374V17.2294C1.53846 17.7033 1.54308 17.8048 1.56 17.8709C1.59305 18.0091 1.66373 18.1355 1.76421 18.2359C1.86469 18.3364 1.99103 18.4071 2.12923 18.4401C2.19385 18.4555 2.29538 18.4601 2.76923 18.4601H6.46154C6.93538 18.4601 7.03692 18.454 7.10308 18.4386C7.24128 18.4055 7.36762 18.3349 7.4681 18.2344C7.56858 18.1339 7.63926 18.0076 7.67231 17.8694C7.68769 17.8048 7.69231 17.7033 7.69231 17.2294V13.5374C7.69231 13.0636 7.68769 12.9621 7.67077 12.8959C7.63772 12.7577 7.56704 12.6314 7.46656 12.5309C7.36608 12.4305 7.23974 12.3598 7.10154 12.3267C7.03846 12.3129 6.93692 12.3067 6.46154 12.3067H2.76923ZM13.5385 10.7684H13.4615C13.1092 10.7684 12.8062 10.7684 12.5385 10.8315C12.1241 10.9305 11.7452 11.1423 11.4437 11.4434C11.1423 11.7445 10.9302 12.1232 10.8308 12.5375C10.7692 12.8052 10.7692 13.1067 10.7692 13.4605V17.3064C10.7692 17.6586 10.7692 17.9617 10.8323 18.2294C10.9313 18.6437 11.1431 19.0226 11.4443 19.324C11.7454 19.6254 12.1241 19.8375 12.5385 19.9369C12.8062 20 13.1092 20 13.4615 20H17.3077C17.66 20 17.9631 20 18.2308 19.9369C18.6449 19.8377 19.0235 19.6257 19.3246 19.3246C19.6257 19.0235 19.8376 18.645 19.9369 18.2309C20 17.9632 20 17.6602 20 17.3079V13.4605C20 13.1082 20 12.8052 19.9369 12.5375C19.8379 12.1231 19.6261 11.7443 19.3249 11.4429C19.0238 11.1415 18.6451 10.9293 18.2308 10.8299C17.9631 10.7684 17.6615 10.7684 17.3077 10.7684H13.5385ZM12.8969 12.3283C12.9631 12.3129 13.0662 12.3067 13.5385 12.3067H17.2308C17.7046 12.3067 17.8062 12.3114 17.8723 12.3283C18.0105 12.3613 18.1369 12.432 18.2373 12.5325C18.3378 12.6329 18.4085 12.7593 18.4415 12.8975C18.4569 12.9621 18.4615 13.0636 18.4615 13.5374V17.2294C18.4615 17.7033 18.4554 17.8048 18.44 17.8709C18.407 18.0091 18.3363 18.1355 18.2358 18.2359C18.1353 18.3364 18.009 18.4071 17.8708 18.4401C17.8062 18.4555 17.7046 18.4601 17.2308 18.4601H13.5385C13.0646 18.4601 12.9631 18.454 12.8969 18.4386C12.7587 18.4055 12.6324 18.3349 12.5319 18.2344C12.4314 18.1339 12.3607 18.0076 12.3277 17.8694C12.3138 17.8063 12.3077 17.7048 12.3077 17.2294V13.5374C12.3077 13.0636 12.3123 12.9621 12.3292 12.8959C12.3623 12.7577 12.433 12.6314 12.5334 12.5309C12.6339 12.4305 12.7603 12.3598 12.8985 12.3267L12.8969 12.3283Z" fill="#F49D89"/>
</svg>
