
<svg width="26" height="26" viewBox="0 0 26 26" fill="none" xmlns="http://www.w3.org/2000/svg">
<path d="M2 16V18H6.586L0 24.586L1.414 26L8 19.414V24H10V16H2Z" fill="#313131"/>
<path d="M17 10C17.5933 10 18.1734 9.82405 18.6667 9.49441C19.1601 9.16477 19.5446 8.69623 19.7716 8.14805C19.9987 7.59987 20.0581 6.99667 19.9424 6.41473C19.8266 5.83279 19.5409 5.29824 19.1213 4.87868C18.7018 4.45912 18.1672 4.1734 17.5853 4.05765C17.0033 3.94189 16.4001 4.0013 15.8519 4.22836C15.3038 4.45543 14.8352 4.83994 14.5056 5.33329C14.1759 5.82664 14 6.40666 14 7C14 7.79565 14.3161 8.55871 14.8787 9.12132C15.4413 9.68393 16.2044 10 17 10ZM17 6C17.1978 6 17.3911 6.05865 17.5556 6.16853C17.72 6.27841 17.8482 6.43459 17.9239 6.61732C17.9996 6.80004 18.0194 7.00111 17.9808 7.19509C17.9422 7.38907 17.847 7.56726 17.7071 7.70711C17.5673 7.84696 17.3891 7.9422 17.1951 7.98079C17.0011 8.01937 16.8 7.99957 16.6173 7.92388C16.4346 7.84819 16.2784 7.72002 16.1685 7.55557C16.0586 7.39112 16 7.19778 16 7C16 6.73479 16.1054 6.48043 16.2929 6.2929C16.4804 6.10536 16.7348 6 17 6Z" fill="#313131"/>
<path d="M24 0H4C3.46957 0 2.96086 0.210714 2.58579 0.585786C2.21071 0.960859 2 1.46957 2 2V12H4V2H24V17.17L20.41 13.58C20.0353 13.2075 19.5284 12.9984 19 12.9984C18.4716 12.9984 17.9647 13.2075 17.59 13.58L16 15.17L9.83 9L8.416 10.415L12 14L14.59 16.59C14.9647 16.9625 15.4716 17.1716 16 17.1716C16.5284 17.1716 17.0353 16.9625 17.41 16.59L19 15L24 20V22H14V24H24C24.5304 24 25.0391 23.7893 25.4142 23.4142C25.7893 23.0391 26 22.5304 26 22V2C26 1.46957 25.7893 0.960859 25.4142 0.585786C25.0391 0.210714 24.5304 0 24 0Z" fill="#313131"/>
</svg>
