<svg width="11" height="8" viewBox="0 0 11 8" fill="none" xmlns="http://www.w3.org/2000/svg">
<path d="M4.01924 8C3.92521 7.99971 3.83225 7.98069 3.74613 7.94412C3.66001 7.90755 3.58258 7.85422 3.51864 7.78744L0.185882 4.35333C0.0612988 4.22473 -0.00543988 4.05345 0.000347276 3.87719C0.00613444 3.70092 0.0839734 3.5341 0.216741 3.41343C0.349508 3.29275 0.526328 3.22811 0.708302 3.23371C0.890276 3.23932 1.0625 3.31472 1.18708 3.44332L4.01238 6.35933L9.77956 0.24833C9.83809 0.177736 9.9109 0.119477 9.99351 0.0771309C10.0761 0.0347848 10.1668 0.00924574 10.26 0.00208235C10.3532 -0.00508104 10.4469 0.00628254 10.5354 0.035475C10.6238 0.0646674 10.7052 0.111072 10.7745 0.17184C10.8438 0.232607 10.8995 0.306454 10.9383 0.388844C10.977 0.471235 10.998 0.56043 10.9999 0.650951C11.0017 0.741471 10.9845 0.831407 10.9492 0.915233C10.9138 0.999059 10.8612 1.07501 10.7945 1.13841L4.5267 7.7808C4.46336 7.84879 4.3862 7.90336 4.30005 7.94108C4.2139 7.9788 4.12063 7.99886 4.0261 8H4.01924Z" fill="white"/>
</svg>
