<svg width="60" height="60" viewBox="0 0 60 60" fill="none" xmlns="http://www.w3.org/2000/svg">
<path d="M23.982 44.161C20.326 42.606 17.393 39.674 15.837 36.018C15.052 34.168 14.613 32.135 14.613 29.999C14.613 27.864 15.051 25.83 15.837 23.981C17.393 20.323 20.325 17.394 23.982 15.838C25.831 15.051 27.864 14.614 30 14.614C32.135 14.614 34.169 15.051 36.018 15.838C39.675 17.394 42.605 20.324 44.162 23.981C44.949 25.83 45.386 27.864 45.386 29.999C45.386 32.135 44.949 34.168 44.162 36.018C42.605 39.673 39.677 42.606 36.018 44.161C34.169 44.947 32.135 45.385 30 45.385C27.864 45.385 25.831 44.947 23.982 44.161ZM0 30C0 46.567 13.432 60 30 60C46.569 60 60 46.567 60 30C60 13.431 46.569 0 30 0C13.432 0 0 13.431 0 30Z" fill="url(#paint0_linear_205_3096)"/>
<path opacity="0.25" d="M8.80899 30C7.97699 27.651 7.5 25.134 7.5 22.5C7.5 18.21 8.72399 14.2161 10.807 10.8051C4.33399 14.7561 0 21.863 0 30C0 38.137 4.33399 45.244 10.807 49.195C8.72399 45.784 7.5 41.79 7.5 37.5C7.5 34.866 7.97599 32.35 8.80899 30Z" fill="white"/>
<path opacity="0.25" d="M60.0009 30C60.0009 21.863 55.6669 14.7561 49.1959 10.8051C51.2789 14.2161 52.5009 18.21 52.5009 22.5C52.5009 25.134 52.0239 27.651 51.1919 30C52.0239 32.35 52.5009 34.866 52.5009 37.5C52.5009 41.79 51.2789 45.784 49.1959 49.195C55.6669 45.244 60.0009 38.137 60.0009 30Z" fill="white"/>
<path opacity="0.25" d="M30.0009 51.192C27.6509 52.024 25.1349 52.5 22.5009 52.5C18.2109 52.5 14.2169 51.277 10.8059 49.194C14.7569 55.666 21.8649 60 30.0009 60C38.1369 60 45.2449 55.666 49.1959 49.194C45.7849 51.277 41.7909 52.5 37.5009 52.5C34.8669 52.5 32.3499 52.025 30.0009 51.192Z" fill="white"/>
<path opacity="0.25" d="M18.3061 41.695C13.9301 39.023 10.5461 34.908 8.80811 30C7.97711 32.35 7.5011 34.865 7.5011 37.5C7.5011 41.79 8.72311 45.784 10.8061 49.195C14.2171 51.277 18.2111 52.5 22.5011 52.5C25.1351 52.5 27.6521 52.023 30.0011 51.193C25.0931 49.455 20.9781 46.07 18.3061 41.695Z" fill="white"/>
<path opacity="0.25" d="M18.3061 41.695C13.9301 39.023 10.5461 34.908 8.80811 30C7.97711 32.35 7.5011 34.865 7.5011 37.5C7.5011 41.79 8.72311 45.784 10.8061 49.195C14.2171 51.277 18.2111 52.5 22.5011 52.5C25.1351 52.5 27.6521 52.023 30.0011 51.193C25.0931 49.455 20.9781 46.07 18.3061 41.695Z" fill="white"/>
<path opacity="0.25" d="M51.1932 30C49.4552 34.908 46.0722 39.021 41.6952 41.695C39.0232 46.071 34.9082 49.455 30.0012 51.192C32.3512 52.024 34.8672 52.5 37.5012 52.5C41.7902 52.5 45.7842 51.278 49.1952 49.195C51.2782 45.784 52.5012 41.79 52.5012 37.5C52.5012 34.866 52.0252 32.35 51.1932 30Z" fill="white"/>
<path opacity="0.25" d="M51.1932 30C49.4552 34.908 46.0722 39.021 41.6952 41.695C39.0232 46.071 34.9082 49.455 30.0012 51.192C32.3512 52.024 34.8672 52.5 37.5012 52.5C41.7902 52.5 45.7842 51.278 49.1952 49.195C51.2782 45.784 52.5012 41.79 52.5012 37.5C52.5012 34.866 52.0252 32.35 51.1932 30Z" fill="white"/>
<path opacity="0.25" d="M23.9818 44.1609C21.9598 43.5989 20.0558 42.7639 18.3048 41.6949C20.9778 46.0709 25.0918 49.454 29.9998 51.192C34.9078 49.454 39.0218 46.0709 41.6938 41.6949C39.9428 42.7629 38.0408 43.5989 36.0168 44.1609C34.1688 44.9479 32.1348 45.3849 29.9988 45.3849C27.8628 45.3849 25.8318 44.9479 23.9818 44.1609Z" fill="white"/>
<path opacity="0.25" d="M23.9818 44.1609C21.9598 43.5989 20.0558 42.7639 18.3048 41.6949C20.9778 46.0709 25.0918 49.454 29.9998 51.192C34.9078 49.454 39.0218 46.0709 41.6938 41.6949C39.9428 42.7629 38.0408 43.5989 36.0168 44.1609C34.1688 44.9479 32.1348 45.3849 29.9988 45.3849C27.8628 45.3849 25.8318 44.9479 23.9818 44.1609Z" fill="white"/>
<path opacity="0.25" d="M23.9818 44.1609C21.9598 43.5989 20.0558 42.7639 18.3048 41.6949C20.9778 46.0709 25.0918 49.454 29.9998 51.192C34.9078 49.454 39.0218 46.0709 41.6938 41.6949C39.9428 42.7629 38.0408 43.5989 36.0168 44.1609C34.1688 44.9479 32.1348 45.3849 29.9988 45.3849C27.8628 45.3849 25.8318 44.9479 23.9818 44.1609Z" fill="white"/>
<path opacity="0.25" d="M30.0009 8.80801C32.3499 7.97601 34.8669 7.5 37.5009 7.5C41.7909 7.5 45.7849 8.723 49.1959 10.806C45.2449 4.334 38.1369 0 30.0009 0C21.8649 0 14.7569 4.334 10.8059 10.806C14.2169 8.723 18.2109 7.5 22.5009 7.5C25.1349 7.5 27.6509 7.97601 30.0009 8.80801Z" fill="white"/>
<path opacity="0.25" d="M30.0011 8.80801C27.6511 7.97601 25.1351 7.5 22.5011 7.5C18.2111 7.5 14.2171 8.723 10.8061 10.806C8.72311 14.217 7.5011 18.211 7.5011 22.5C7.5011 25.134 7.9771 27.651 8.8091 30C10.5461 25.093 13.9301 20.978 18.3061 18.306C20.9781 13.929 25.0931 10.546 30.0011 8.80801Z" fill="white"/>
<path opacity="0.25" d="M30.0011 8.80801C27.6511 7.97601 25.1351 7.5 22.5011 7.5C18.2111 7.5 14.2171 8.723 10.8061 10.806C8.72311 14.217 7.5011 18.211 7.5011 22.5C7.5011 25.134 7.9771 27.651 8.8091 30C10.5461 25.093 13.9301 20.978 18.3061 18.306C20.9781 13.929 25.0931 10.546 30.0011 8.80801Z" fill="white"/>
<path opacity="0.25" d="M49.1952 10.805C45.7852 8.72202 41.7912 7.5 37.5012 7.5C34.8662 7.5 32.3502 7.97601 30.0012 8.80701C34.9082 10.545 39.0232 13.929 41.6952 18.305C46.0712 20.977 49.4562 25.092 51.1932 30C52.0242 27.651 52.5012 25.134 52.5012 22.5C52.5012 18.211 51.2782 14.216 49.1952 10.805Z" fill="white"/>
<path opacity="0.25" d="M49.1952 10.805C45.7852 8.72202 41.7912 7.5 37.5012 7.5C34.8662 7.5 32.3502 7.97601 30.0012 8.80701C34.9082 10.545 39.0232 13.929 41.6952 18.305C46.0712 20.977 49.4562 25.092 51.1932 30C52.0242 27.651 52.5012 25.134 52.5012 22.5C52.5012 18.211 51.2782 14.216 49.1952 10.805Z" fill="white"/>
<path opacity="0.25" d="M36.018 15.838C38.04 16.399 39.944 17.235 41.696 18.305C39.023 13.928 34.908 10.545 30 8.80701C25.094 10.545 20.979 13.928 18.307 18.305C20.058 17.235 21.959 16.399 23.984 15.838C25.832 15.051 27.866 14.615 30.001 14.615C32.137 14.616 34.17 15.052 36.018 15.838Z" fill="white"/>
<path opacity="0.25" d="M36.018 15.838C38.04 16.399 39.944 17.235 41.696 18.305C39.023 13.928 34.908 10.545 30 8.80701C25.094 10.545 20.979 13.928 18.307 18.305C20.058 17.235 21.959 16.399 23.984 15.838C25.832 15.051 27.866 14.615 30.001 14.615C32.137 14.616 34.17 15.052 36.018 15.838Z" fill="white"/>
<path opacity="0.25" d="M36.018 15.838C38.04 16.399 39.944 17.235 41.696 18.305C39.023 13.928 34.908 10.545 30 8.80701C25.094 10.545 20.979 13.928 18.307 18.305C20.058 17.235 21.959 16.399 23.984 15.838C25.832 15.051 27.866 14.615 30.001 14.615C32.137 14.616 34.17 15.052 36.018 15.838Z" fill="white"/>
<path opacity="0.25" d="M15.8401 23.9822C16.4011 21.9592 17.2361 20.0562 18.3061 18.3052C13.9301 20.9782 10.5471 25.0922 8.80908 30.0002C10.5471 34.9082 13.9301 39.0232 18.3061 41.6952C17.2371 39.9432 16.4011 38.0411 15.8401 36.0171C15.0531 34.1692 14.6161 32.1362 14.6161 29.9992C14.6161 27.8642 15.0531 25.8312 15.8401 23.9822Z" fill="white"/>
<path opacity="0.25" d="M15.8401 23.9822C16.4011 21.9592 17.2361 20.0562 18.3061 18.3052C13.9301 20.9782 10.5471 25.0922 8.80908 30.0002C10.5471 34.9082 13.9301 39.0232 18.3061 41.6952C17.2371 39.9432 16.4011 38.0411 15.8401 36.0171C15.0531 34.1692 14.6161 32.1362 14.6161 29.9992C14.6161 27.8642 15.0531 25.8312 15.8401 23.9822Z" fill="white"/>
<path opacity="0.25" d="M15.8401 23.9822C16.4011 21.9592 17.2361 20.0562 18.3061 18.3052C13.9301 20.9782 10.5471 25.0922 8.80908 30.0002C10.5471 34.9082 13.9301 39.0232 18.3061 41.6952C17.2371 39.9432 16.4011 38.0411 15.8401 36.0171C15.0531 34.1692 14.6161 32.1362 14.6161 29.9992C14.6161 27.8642 15.0531 25.8312 15.8401 23.9822Z" fill="white"/>
<path opacity="0.25" d="M41.6959 18.3052C42.7649 20.0562 43.6009 21.9592 44.1619 23.9822C44.9489 25.8312 45.3849 27.8642 45.3849 30.0002C45.3849 32.1362 44.9489 34.1692 44.1619 36.0171C43.6009 38.0401 42.7659 39.9442 41.6959 41.6952C46.0719 39.0222 49.4549 34.9082 51.1929 30.0002C49.4549 25.0922 46.0719 20.9782 41.6959 18.3052Z" fill="white"/>
<path opacity="0.25" d="M41.6959 18.3052C42.7649 20.0562 43.6009 21.9592 44.1619 23.9822C44.9489 25.8312 45.3849 27.8642 45.3849 30.0002C45.3849 32.1362 44.9489 34.1692 44.1619 36.0171C43.6009 38.0401 42.7659 39.9442 41.6959 41.6952C46.0719 39.0222 49.4549 34.9082 51.1929 30.0002C49.4549 25.0922 46.0719 20.9782 41.6959 18.3052Z" fill="white"/>
<path opacity="0.25" d="M41.6959 18.3052C42.7649 20.0562 43.6009 21.9592 44.1619 23.9822C44.9489 25.8312 45.3849 27.8642 45.3849 30.0002C45.3849 32.1362 44.9489 34.1692 44.1619 36.0171C43.6009 38.0401 42.7659 39.9442 41.6959 41.6952C46.0719 39.0222 49.4549 34.9082 51.1929 30.0002C49.4549 25.0922 46.0719 20.9782 41.6959 18.3052Z" fill="white"/>
<path opacity="0.25" d="M44.1623 23.983C43.6013 21.96 42.7663 20.057 41.6963 18.306C39.9443 17.236 38.0413 16.4 36.0183 15.839C39.6763 17.395 42.6063 20.326 44.1623 23.983Z" fill="white"/>
<path opacity="0.25" d="M44.1623 23.983C43.6013 21.96 42.7663 20.057 41.6963 18.306C39.9443 17.236 38.0413 16.4 36.0183 15.839C39.6763 17.395 42.6063 20.326 44.1623 23.983Z" fill="white"/>
<path opacity="0.25" d="M44.1623 23.983C43.6013 21.96 42.7663 20.057 41.6963 18.306C39.9443 17.236 38.0413 16.4 36.0183 15.839C39.6763 17.395 42.6063 20.326 44.1623 23.983Z" fill="white"/>
<path opacity="0.25" d="M44.1623 23.983C43.6013 21.96 42.7663 20.057 41.6963 18.306C39.9443 17.236 38.0413 16.4 36.0183 15.839C39.6763 17.395 42.6063 20.326 44.1623 23.983Z" fill="white"/>
<path opacity="0.25" d="M15.8401 36.0181C16.4011 38.0411 17.2361 39.9451 18.3061 41.6961C20.0571 42.7641 21.9601 43.6001 23.9831 44.1621C20.3261 42.6061 17.3951 39.6761 15.8401 36.0181Z" fill="white"/>
<path opacity="0.25" d="M15.8401 36.0181C16.4011 38.0411 17.2361 39.9451 18.3061 41.6961C20.0571 42.7641 21.9601 43.6001 23.9831 44.1621C20.3261 42.6061 17.3951 39.6761 15.8401 36.0181Z" fill="white"/>
<path opacity="0.25" d="M15.8401 36.0181C16.4011 38.0411 17.2361 39.9451 18.3061 41.6961C20.0571 42.7641 21.9601 43.6001 23.9831 44.1621C20.3261 42.6061 17.3951 39.6761 15.8401 36.0181Z" fill="white"/>
<path opacity="0.25" d="M15.8401 36.0181C16.4011 38.0411 17.2361 39.9451 18.3061 41.6961C20.0571 42.7641 21.9601 43.6001 23.9831 44.1621C20.3261 42.6061 17.3951 39.6761 15.8401 36.0181Z" fill="white"/>
<path opacity="0.25" d="M36.0183 44.1611C38.0413 43.5991 39.9453 42.7641 41.6963 41.6951C42.7643 39.9441 43.6013 38.0411 44.1633 36.0171C42.6053 39.6761 39.6763 42.6061 36.0183 44.1611Z" fill="white"/>
<path opacity="0.25" d="M36.0183 44.1611C38.0413 43.5991 39.9453 42.7641 41.6963 41.6951C42.7643 39.9441 43.6013 38.0411 44.1633 36.0171C42.6053 39.6761 39.6763 42.6061 36.0183 44.1611Z" fill="white"/>
<path opacity="0.25" d="M36.0183 44.1611C38.0413 43.5991 39.9453 42.7641 41.6963 41.6951C42.7643 39.9441 43.6013 38.0411 44.1633 36.0171C42.6053 39.6761 39.6763 42.6061 36.0183 44.1611Z" fill="white"/>
<path opacity="0.25" d="M36.0183 44.1611C38.0413 43.5991 39.9453 42.7641 41.6963 41.6951C42.7643 39.9441 43.6013 38.0411 44.1633 36.0171C42.6053 39.6761 39.6763 42.6061 36.0183 44.1611Z" fill="white"/>
<path opacity="0.25" d="M23.9829 15.838C21.9599 16.399 20.0569 17.235 18.3059 18.305C17.2359 20.056 16.3999 21.959 15.8379 23.982C17.3949 20.325 20.3259 17.395 23.9829 15.838Z" fill="white"/>
<path opacity="0.25" d="M23.9829 15.838C21.9599 16.399 20.0569 17.235 18.3059 18.305C17.2359 20.056 16.3999 21.959 15.8379 23.982C17.3949 20.325 20.3259 17.395 23.9829 15.838Z" fill="white"/>
<path opacity="0.25" d="M23.9829 15.838C21.9599 16.399 20.0569 17.235 18.3059 18.305C17.2359 20.056 16.3999 21.959 15.8379 23.982C17.3949 20.325 20.3259 17.395 23.9829 15.838Z" fill="white"/>
<path opacity="0.25" d="M23.9829 15.838C21.9599 16.399 20.0569 17.235 18.3059 18.305C17.2359 20.056 16.3999 21.959 15.8379 23.982C17.3949 20.325 20.3259 17.395 23.9829 15.838Z" fill="white"/>
<defs>
<linearGradient id="paint0_linear_205_3096" x1="30" y1="0" x2="30" y2="60" gradientUnits="userSpaceOnUse">
<stop stop-color="#357679"/>
<stop offset="1" stop-color="#ADD163"/>
</linearGradient>
</defs>
</svg>
