<svg width="16" height="15" viewBox="0 0 16 15" fill="none" xmlns="http://www.w3.org/2000/svg">
<path d="M4.14447 3.30605C4.57841 3.07401 5.04536 3 5.5003 3C6.02624 3 6.63816 3.17303 7.1321 3.5771C7.64904 4.00117 8 4.65128 8 5.49942C8 6.47458 7.31108 7.00367 6.92313 7.30172L6.83814 7.36773C6.41419 7.70078 6.25021 7.87881 6.25021 8.24988C6.25021 8.44882 6.1712 8.63962 6.03057 8.78029C5.88993 8.92097 5.69919 9 5.5003 9C5.30141 9 5.11067 8.92097 4.97004 8.78029C4.8294 8.63962 4.75039 8.44882 4.75039 8.24988C4.75039 7.11569 5.46131 6.54159 5.91225 6.18753C6.42519 5.78446 6.50018 5.69445 6.50018 5.49942C6.50018 5.10235 6.3512 4.87731 6.18022 4.73829C5.98629 4.58551 5.74715 4.50144 5.5003 4.49925C5.20534 4.49925 5.00236 4.54826 4.85038 4.62927C4.7074 4.70528 4.55642 4.83931 4.41043 5.10935C4.36349 5.19604 4.29994 5.27263 4.22341 5.33475C4.14687 5.39687 4.05886 5.4433 3.96439 5.47139C3.86991 5.49949 3.77084 5.50869 3.67281 5.49849C3.57478 5.48828 3.47972 5.45886 3.39306 5.4119C3.30639 5.36495 3.22983 5.30138 3.16773 5.22482C3.10562 5.14827 3.05921 5.06023 3.03112 4.96573C3.00303 4.87123 2.99383 4.77212 3.00403 4.67406C3.01424 4.57601 3.04365 4.48092 3.09059 4.39423C3.35456 3.90815 3.70252 3.54109 4.14447 3.30505V3.30605Z" fill="#313131"/>
<path d="M5 11C5.26522 11 5.51957 10.8946 5.70711 10.7071C5.89464 10.5196 6 10.2652 6 10C6 9.73478 5.89464 9.48043 5.70711 9.29289C5.51957 9.10536 5.26522 9 5 9C4.73478 9 4.48043 9.10536 4.29289 9.29289C4.10536 9.48043 4 9.73478 4 10C4 10.2652 4.10536 10.5196 4.29289 10.7071C4.48043 10.8946 4.73478 11 5 11Z" fill="#313131"/>
<path d="M15.2647 10.797C15.1912 10.7149 15.1507 10.6093 15.1507 10.5C15.1507 10.3907 15.1912 10.2851 15.2647 10.203L15.8509 9.55513C15.9156 9.48434 15.9557 9.39527 15.9655 9.30069C15.9754 9.20612 15.9545 9.1109 15.9059 9.0287L14.9898 7.47191C14.9417 7.38981 14.8684 7.32473 14.7804 7.28595C14.6924 7.24717 14.5942 7.23666 14.4997 7.25594L13.6386 7.42692C13.529 7.44916 13.415 7.43123 13.3179 7.37652C13.2209 7.32182 13.1476 7.23411 13.1119 7.12996L12.8325 6.30657C12.8017 6.2172 12.7432 6.13958 12.6651 6.08468C12.587 6.02978 12.4933 6.00037 12.3973 6.00061H10.5651C10.4653 5.99549 10.3664 6.02263 10.2837 6.07787C10.201 6.13312 10.139 6.21344 10.1071 6.30657L9.8506 7.12996C9.81487 7.23411 9.74157 7.32182 9.64453 7.37652C9.54749 7.43123 9.43342 7.44916 9.32385 7.42692L8.43983 7.25594C8.35031 7.24351 8.25904 7.25739 8.17753 7.29582C8.09602 7.33426 8.02792 7.39552 7.98179 7.47191L7.06571 9.0287C7.01585 9.10998 6.99344 9.20466 7.00166 9.29921C7.00989 9.39376 7.04834 9.48334 7.11151 9.55513L7.69322 10.203C7.76666 10.2851 7.80715 10.3907 7.80715 10.5C7.80715 10.6093 7.76666 10.7149 7.69322 10.797L7.11151 11.4449C7.04834 11.5167 7.00989 11.6062 7.00166 11.7008C6.99344 11.7953 7.01585 11.89 7.06571 11.9713L7.98179 13.5281C8.02993 13.6102 8.10323 13.6753 8.19123 13.7141C8.27924 13.7528 8.37746 13.7633 8.47189 13.7441L9.33301 13.5731C9.44258 13.5508 9.55665 13.5688 9.65369 13.6235C9.75073 13.6782 9.82403 13.7659 9.85976 13.87L10.1392 14.6934C10.171 14.7866 10.2331 14.8669 10.3158 14.9221C10.3985 14.9774 10.4973 15.0045 10.5972 14.9994H12.4294C12.5254 14.9996 12.6191 14.9702 12.6972 14.9153C12.7752 14.8604 12.8338 14.7828 12.8645 14.6934L13.1439 13.87C13.1796 13.7659 13.2529 13.6782 13.35 13.6235C13.447 13.5688 13.5611 13.5508 13.6707 13.5731L14.5318 13.7441C14.6262 13.7633 14.7244 13.7528 14.8125 13.7141C14.9005 13.6753 14.9738 13.6102 15.0219 13.5281L15.938 11.9713C15.9866 11.8891 16.0075 11.7939 15.9976 11.6993C15.9877 11.6047 15.9476 11.5157 15.883 11.4449L15.2647 10.797ZM14.5822 11.3999L14.9486 11.8048L14.3623 12.8037L13.8218 12.6957C13.4919 12.6295 13.1488 12.6845 12.8575 12.8504C12.5662 13.0163 12.347 13.2814 12.2416 13.5956L12.0675 14.0995H10.8949L10.73 13.5866C10.6246 13.2725 10.4055 13.0073 10.1142 12.8414C9.82286 12.6755 9.47969 12.6205 9.1498 12.6867L8.60931 12.7947L8.01385 11.8003L8.38029 11.3954C8.60562 11.1479 8.7302 10.8275 8.7302 10.4955C8.7302 10.1635 8.60562 9.8431 8.38029 9.59562L8.01385 9.19068L8.60015 8.20081L9.14064 8.3088C9.47053 8.37504 9.8137 8.31999 10.105 8.15411C10.3963 7.98822 10.6155 7.72305 10.7209 7.40892L10.8949 6.90049H12.0675L12.2416 7.41342C12.347 7.72755 12.5662 7.99272 12.8575 8.15861C13.1488 8.32449 13.4919 8.37954 13.8218 8.3133L14.3623 8.20531L14.9486 9.20418L14.5822 9.60912C14.3594 9.85603 14.2363 10.1746 14.2363 10.5045C14.2363 10.8344 14.3594 11.153 14.5822 11.3999ZM11.4812 8.70024C11.1189 8.70024 10.7646 8.8058 10.4633 9.00356C10.162 9.20132 9.9272 9.4824 9.78853 9.81126C9.64986 10.1401 9.61357 10.502 9.68427 10.8511C9.75496 11.2002 9.92946 11.5209 10.1857 11.7726C10.4419 12.0243 10.7684 12.1957 11.1238 12.2652C11.4792 12.3346 11.8476 12.299 12.1824 12.1628C12.5172 12.0265 12.8033 11.7959 13.0046 11.4999C13.2059 11.2039 13.3134 10.856 13.3134 10.5C13.3134 10.0227 13.1204 9.5649 12.7768 9.22738C12.4332 8.88986 11.9672 8.70024 11.4812 8.70024ZM11.4812 11.3999C11.3 11.3999 11.1229 11.3471 10.9723 11.2482C10.8216 11.1493 10.7042 11.0088 10.6349 10.8444C10.5655 10.6799 10.5474 10.499 10.5827 10.3244C10.6181 10.1499 10.7053 9.98954 10.8335 9.86369C10.9616 9.73784 11.1248 9.65214 11.3025 9.61741C11.4802 9.58269 11.6644 9.60051 11.8318 9.66862C11.9992 9.73673 12.1423 9.85207 12.2429 10.0001C12.3436 10.148 12.3973 10.322 12.3973 10.5C12.3973 10.7387 12.3008 10.9675 12.129 11.1363C11.9572 11.3051 11.7242 11.3999 11.4812 11.3999Z" fill="#313131"/>
<path fill-rule="evenodd" clip-rule="evenodd" d="M3.67493 0.858682C4.70336 0.295141 5.85749 -0.000196774 7.03052 9.83621e-08C8.07064 0.000681103 9.09744 0.233728 10.0357 0.682072C10.974 1.13042 11.8 1.78271 12.4532 2.59116C13.1064 3.39962 13.5703 4.34378 13.8109 5.35449C13.8617 5.56807 13.9023 5.78348 13.9326 6H12.525C12.4027 5.30681 12.1492 4.63857 11.7733 4.0326C11.1344 3.00251 10.1767 2.2085 9.04535 1.7709C7.91402 1.3333 6.6707 1.27594 5.5038 1.60754C4.3369 1.93913 3.31001 2.64158 2.57874 3.60847C1.84746 4.57536 1.45165 5.75398 1.45128 6.96575C1.44973 7.85328 1.66147 8.72823 2.06872 9.51707L2.1896 9.75205L2.12451 10.0084C2.078 10.1909 2.02997 10.3796 1.98136 10.5705C1.80838 11.2498 1.62808 11.958 1.4829 12.5235L4.07539 11.904L4.3218 11.8455L4.54776 11.9579C5.01013 12.1873 5.49901 12.3501 6 12.4441V13.8557C5.36623 13.7616 4.7466 13.5803 4.15907 13.3157C3.32781 13.5138 2.40778 13.7344 1.7234 13.8985C1.62154 13.9229 1.5249 13.9461 1.43455 13.9677C1.23979 14.0146 1.03621 14.0104 0.843568 13.9555C0.650922 13.9006 0.475745 13.7969 0.335031 13.6545C0.194317 13.5121 0.0928433 13.3358 0.040453 13.1427C-0.0119374 12.9495 -0.0134654 12.7462 0.0360171 12.5523L0.710175 9.91272C0.213904 8.8511 -0.00625069 7.68161 0.0700841 6.51245C0.146419 5.3433 0.516777 4.21227 1.14689 3.22401C1.77699 2.23576 2.64649 1.42222 3.67493 0.858682Z" fill="#313131"/>
</svg>
