<svg width="18" height="18" viewBox="0 0 18 18" fill="none" xmlns="http://www.w3.org/2000/svg">
<g clip-path="url(#clip0_61_1913)">
<path d="M13 6.36181C13 3.95226 11.0401 2 8.6212 2C6.20227 2 4.2424 3.95226 4.2424 6.36181C4.2424 7.81809 4.95926 9.10905 6.06102 9.9005C6.05396 9.90402 6.04866 9.90578 6.04513 9.90754C5.25588 10.24 4.54786 10.7166 3.93871 11.3251C3.32957 11.9319 2.85284 12.6389 2.51914 13.4269C2.19249 14.1972 2.01769 15.0151 2.00004 15.8558C1.99827 15.9349 2.06183 16 2.14129 16H3.19891C3.27483 16 3.33839 15.9384 3.34016 15.8628C3.37547 14.505 3.92106 13.2334 4.88686 12.2696C5.88445 11.2724 7.20869 10.7236 8.6212 10.7236C11.0401 10.7236 13 8.77136 13 6.36181ZM8.6212 9.38693C6.94384 9.38693 5.58429 8.03266 5.58429 6.36181C5.58429 4.69095 6.94384 3.33668 8.6212 3.33668C10.2986 3.33668 11.6581 4.69095 11.6581 6.36181C11.6581 8.03266 10.2986 9.38693 8.6212 9.38693Z" fill="#313131"/>
</g>
<path d="M15.2647 13.797C15.1912 13.7149 15.1507 13.6093 15.1507 13.5C15.1507 13.3907 15.1912 13.2851 15.2647 13.203L15.8509 12.5551C15.9156 12.4843 15.9557 12.3953 15.9655 12.3007C15.9754 12.2061 15.9545 12.1109 15.9059 12.0287L14.9898 10.4719C14.9417 10.3898 14.8684 10.3247 14.7804 10.2859C14.6924 10.2472 14.5942 10.2367 14.4997 10.2559L13.6386 10.4269C13.529 10.4492 13.415 10.4312 13.3179 10.3765C13.2209 10.3218 13.1476 10.2341 13.1119 10.13L12.8325 9.30657C12.8017 9.2172 12.7432 9.13958 12.6651 9.08468C12.587 9.02978 12.4933 9.00037 12.3973 9.00061H10.5651C10.4653 8.99549 10.3664 9.02263 10.2837 9.07787C10.201 9.13312 10.139 9.21344 10.1071 9.30657L9.8506 10.13C9.81487 10.2341 9.74157 10.3218 9.64453 10.3765C9.54749 10.4312 9.43342 10.4492 9.32385 10.4269L8.43983 10.2559C8.35031 10.2435 8.25904 10.2574 8.17753 10.2958C8.09602 10.3343 8.02792 10.3955 7.98179 10.4719L7.06571 12.0287C7.01585 12.11 6.99344 12.2047 7.00166 12.2992C7.00989 12.3938 7.04834 12.4833 7.11151 12.5551L7.69322 13.203C7.76666 13.2851 7.80715 13.3907 7.80715 13.5C7.80715 13.6093 7.76666 13.7149 7.69322 13.797L7.11151 14.4449C7.04834 14.5167 7.00989 14.6062 7.00166 14.7008C6.99344 14.7953 7.01585 14.89 7.06571 14.9713L7.98179 16.5281C8.02993 16.6102 8.10323 16.6753 8.19123 16.7141C8.27924 16.7528 8.37746 16.7633 8.47189 16.7441L9.33301 16.5731C9.44258 16.5508 9.55665 16.5688 9.65369 16.6235C9.75073 16.6782 9.82403 16.7659 9.85976 16.87L10.1392 17.6934C10.171 17.7866 10.2331 17.8669 10.3158 17.9221C10.3985 17.9774 10.4973 18.0045 10.5972 17.9994H12.4294C12.5254 17.9996 12.6191 17.9702 12.6972 17.9153C12.7752 17.8604 12.8338 17.7828 12.8645 17.6934L13.1439 16.87C13.1796 16.7659 13.2529 16.6782 13.35 16.6235C13.447 16.5688 13.5611 16.5508 13.6707 16.5731L14.5318 16.7441C14.6262 16.7633 14.7244 16.7528 14.8125 16.7141C14.9005 16.6753 14.9738 16.6102 15.0219 16.5281L15.938 14.9713C15.9866 14.8891 16.0075 14.7939 15.9976 14.6993C15.9877 14.6047 15.9476 14.5157 15.883 14.4449L15.2647 13.797ZM14.5822 14.3999L14.9486 14.8048L14.3623 15.8037L13.8218 15.6957C13.4919 15.6295 13.1488 15.6845 12.8575 15.8504C12.5662 16.0163 12.347 16.2814 12.2416 16.5956L12.0675 17.0995H10.8949L10.73 16.5866C10.6246 16.2725 10.4055 16.0073 10.1142 15.8414C9.82286 15.6755 9.47969 15.6205 9.1498 15.6867L8.60931 15.7947L8.01385 14.8003L8.38029 14.3954C8.60562 14.1479 8.7302 13.8275 8.7302 13.4955C8.7302 13.1635 8.60562 12.8431 8.38029 12.5956L8.01385 12.1907L8.60015 11.2008L9.14064 11.3088C9.47053 11.375 9.8137 11.32 10.105 11.1541C10.3963 10.9882 10.6155 10.723 10.7209 10.4089L10.8949 9.90049H12.0675L12.2416 10.4134C12.347 10.7275 12.5662 10.9927 12.8575 11.1586C13.1488 11.3245 13.4919 11.3795 13.8218 11.3133L14.3623 11.2053L14.9486 12.2042L14.5822 12.6091C14.3594 12.856 14.2363 13.1746 14.2363 13.5045C14.2363 13.8344 14.3594 14.153 14.5822 14.3999ZM11.4812 11.7002C11.1189 11.7002 10.7646 11.8058 10.4633 12.0036C10.162 12.2013 9.9272 12.4824 9.78853 12.8113C9.64986 13.1401 9.61357 13.502 9.68427 13.8511C9.75496 14.2002 9.92946 14.5209 10.1857 14.7726C10.4419 15.0243 10.7684 15.1957 11.1238 15.2652C11.4792 15.3346 11.8476 15.299 12.1824 15.1628C12.5172 15.0265 12.8033 14.7959 13.0046 14.4999C13.2059 14.2039 13.3134 13.856 13.3134 13.5C13.3134 13.0227 13.1204 12.5649 12.7768 12.2274C12.4332 11.8899 11.9672 11.7002 11.4812 11.7002ZM11.4812 14.3999C11.3 14.3999 11.1229 14.3471 10.9723 14.2482C10.8216 14.1493 10.7042 14.0088 10.6349 13.8444C10.5655 13.6799 10.5474 13.499 10.5827 13.3244C10.6181 13.1499 10.7053 12.9895 10.8335 12.8637C10.9616 12.7378 11.1248 12.6521 11.3025 12.6174C11.4802 12.5827 11.6644 12.6005 11.8318 12.6686C11.9992 12.7367 12.1423 12.8521 12.2429 13.0001C12.3436 13.148 12.3973 13.322 12.3973 13.5C12.3973 13.7387 12.3008 13.9675 12.129 14.1363C11.9572 14.3051 11.7242 14.3999 11.4812 14.3999Z" fill="#313131"/>
<defs>
<clipPath id="clip0_61_1913">
<rect width="18" height="18" fill="white"/>
</clipPath>
</defs>
</svg>
