<svg width="32" height="32" viewBox="0 0 32 32" fill="none" xmlns="http://www.w3.org/2000/svg">
<path d="M20.9986 2C19.5933 1.99968 18.2074 2.32857 16.9521 2.96031C15.6968 3.59205 14.6069 4.50908 13.7698 5.63792C12.9327 6.76675 12.3716 8.07599 12.1315 9.46074C11.8914 10.8455 11.979 12.2672 12.3872 13.612L2 24V30H7.99955L18.3868 19.612C19.6246 19.9878 20.9289 20.0922 22.2107 19.9183C23.4925 19.7443 24.7218 19.2961 25.8147 18.604C26.9077 17.912 27.8386 16.9925 28.544 15.9081C29.2495 14.8237 29.7129 13.6 29.9026 12.3203C30.0924 11.0407 30.0041 9.7351 29.6437 8.49264C29.2833 7.25019 28.6593 6.10003 27.8143 5.12056C26.9692 4.14109 25.923 3.35532 24.7468 2.81681C23.5706 2.2783 22.2922 1.9997 20.9986 2ZM20.9986 18C20.3102 17.9996 19.6255 17.8979 18.9667 17.698L17.8198 17.35L16.9729 18.197L13.7921 21.378L12.4132 20L10.9993 21.414L12.3782 22.793L10.7923 24.379L9.41345 23L7.99955 24.414L9.37845 25.793L7.17161 28H3.99985V24.828L13.8011 15.026L14.6491 14.179L14.3011 13.032C13.8737 11.623 13.9015 10.1151 14.3804 8.72277C14.8594 7.33045 15.7652 6.12463 16.9689 5.27683C18.1727 4.42902 19.6131 3.98242 21.0853 4.00053C22.5575 4.01864 23.9865 4.50056 25.169 5.37772C26.3515 6.25488 27.2273 7.48262 27.6719 8.8863C28.1165 10.29 28.1072 11.7981 27.6452 13.1962C27.1833 14.5942 26.2923 15.8111 25.099 16.6735C23.9057 17.5359 22.4709 18.0001 20.9986 18Z" fill="#313131"/>
<path d="M22 12C23.1046 12 24 11.1046 24 10C24 8.89543 23.1046 8 22 8C20.8954 8 20 8.89543 20 10C20 11.1046 20.8954 12 22 12Z" fill="#313131"/>
</svg>
