<svg version="1.0" xmlns="http://www.w3.org/2000/svg"
 width="35.000000pt" height="11.000000pt" viewBox="0 0 35.000000 11.000000"
 preserveAspectRatio="xMidYMid meet">
<g transform="translate(0.000000,11.000000) scale(0.100000,-0.100000)"
fill="#313131"> stroke="none">
<path d="M16 94 c-9 -8 -16 -24 -16 -34 0 -40 60 -66 88 -38 28 28 2 88 -38
88 -10 0 -26 -7 -34 -16z"/>
<path d="M134 85 c-15 -23 -15 -27 0 -50 21 -32 59 -33 80 -3 20 29 20 34 -4
58 -27 27 -56 25 -76 -5z"/>
<path d="M268 99 c-21 -12 -24 -59 -6 -77 18 -18 53 -15 71 6 22 24 21 45 -1
65 -21 19 -39 21 -64 6z"/>
</g>
</svg>
