<svg width="18" height="18" viewBox="0 0 18 18" fill="none" xmlns="http://www.w3.org/2000/svg">
<path d="M12.7685 6.37647C12.7685 3.95882 10.8499 2 8.48187 2C6.11384 2 4.19522 3.95882 4.19522 6.37647C4.19522 7.83765 4.89698 9.13294 5.97556 9.92706C5.96865 9.93059 5.96346 9.93235 5.96 9.93412C5.18737 10.2676 4.49425 10.7459 3.89792 11.3565C3.30159 11.9653 2.8349 12.6747 2.50821 13.4653C2.18844 14.2382 2.01732 15.0588 2.00004 15.9024C1.99831 15.9818 2.06053 16.0471 2.13831 16.0471H3.17368C3.248 16.0471 3.31023 15.9853 3.31196 15.9094C3.34653 14.5471 3.88063 13.2712 4.82611 12.3041C5.80271 11.3035 7.09908 10.7529 8.48187 10.7529C10.8499 10.7529 12.7685 8.79412 12.7685 6.37647ZM8.48187 9.41177C6.8398 9.41177 5.50887 8.05294 5.50887 6.37647C5.50887 4.7 6.8398 3.34118 8.48187 3.34118C10.1239 3.34118 11.4549 4.7 11.4549 6.37647C11.4549 8.05294 10.1239 9.41177 8.48187 9.41177ZM10.2968 13.3118H14.86C14.936 13.3118 14.9983 13.2482 14.9983 13.1706V12.1824C14.9983 12.1047 14.936 12.0412 14.86 12.0412H11.8092L12.6251 10.9806C12.6441 10.9559 12.6544 10.9241 12.6544 10.8941C12.6544 10.8165 12.5922 10.7529 12.5162 10.7529H11.2613C11.1766 10.7529 11.0971 10.7935 11.0435 10.8606L9.85948 12.3976C9.78342 12.4965 9.74194 12.62 9.74194 12.7471C9.74367 13.0594 9.99084 13.3118 10.2968 13.3118ZM14.4452 14.4412H9.88195C9.80589 14.4412 9.74367 14.5047 9.74367 14.5824V15.5706C9.74367 15.6482 9.80589 15.7118 9.88195 15.7118H12.9327L12.1169 16.7724C12.0979 16.7971 12.0875 16.8288 12.0875 16.8588C12.0875 16.9365 12.1497 17 12.2258 17H13.4807C13.5654 17 13.6449 16.9594 13.6984 16.8924L14.8825 15.3553C14.9585 15.2565 15 15.1329 15 15.0059C14.9983 14.6935 14.7511 14.4412 14.4452 14.4412Z" fill="#313131"/>
</svg>
