<svg width="18" height="18" viewBox="0 0 18 18" fill="none" xmlns="http://www.w3.org/2000/svg">
<path d="M12.3793 3.92629L14.0737 5.61992L12.3793 3.92629ZM13.4689 2.43427L8.88722 7.01595C8.65048 7.25235 8.48903 7.55354 8.42321 7.88156L8 10L10.1184 9.57599C10.4464 9.51039 10.7472 9.34959 10.9841 9.11279L15.5657 4.53111C15.7034 4.39343 15.8126 4.22998 15.8871 4.05009C15.9617 3.8702 16 3.6774 16 3.48269C16 3.28798 15.9617 3.09518 15.8871 2.91529C15.8126 2.7354 15.7034 2.57195 15.5657 2.43427C15.4281 2.29659 15.2646 2.18737 15.0847 2.11286C14.9048 2.03835 14.712 2 14.5173 2C14.3226 2 14.1298 2.03835 13.9499 2.11286C13.77 2.18737 13.6066 2.29659 13.4689 2.43427V2.43427Z" stroke="#313131" stroke-width="2" stroke-linecap="round" stroke-linejoin="round"/>
<path d="M14 11.3333V13.5333C14 13.9223 13.8455 14.2954 13.5704 14.5704C13.2954 14.8455 12.9223 15 12.5333 15H4.46667C4.07768 15 3.70463 14.8455 3.42958 14.5704C3.15452 14.2954 3 13.9223 3 13.5333V5.46667C3 5.07768 3.15452 4.70463 3.42958 4.42958C3.70463 4.15452 4.07768 4 4.46667 4H6.66667" stroke="#313131" stroke-width="2" stroke-linecap="round" stroke-linejoin="round"/>
</svg>
