<svg width="17" height="17" viewBox="0 0 17 17" fill="none" xmlns="http://www.w3.org/2000/svg">
<path fill-rule="evenodd" clip-rule="evenodd" d="M10.0017 8C10.0017 9.1055 9.10549 10.0017 7.99999 10.0017C6.8945 10.0017 5.99832 9.1055 5.99832 8C5.99832 6.89451 6.8945 5.99833 7.99999 5.99833C9.10549 5.99833 10.0017 6.8945 10.0017 8Z" stroke="#313131" stroke-width="2" stroke-linecap="round" stroke-linejoin="round"/>
<path fill-rule="evenodd" clip-rule="evenodd" d="M13.5455 10.5455C13.3598 10.9662 13.4489 11.4576 13.7705 11.7864L13.8114 11.8273C14.0674 12.0831 14.2113 12.4301 14.2113 12.7921C14.2113 13.154 14.0674 13.501 13.8114 13.7568C13.5556 14.0129 13.2085 14.1568 12.8466 14.1568C12.4847 14.1568 12.1376 14.0129 11.8818 13.7568L11.8409 13.7159C11.5122 13.3943 11.0208 13.3052 10.6 13.4909C10.1879 13.6675 9.91998 14.0721 9.91819 14.5205V14.6364C9.91819 15.3895 9.30768 16 8.55455 16C7.80144 16 7.19091 15.3895 7.19091 14.6364V14.575C7.18011 14.1132 6.8881 13.7049 6.45455 13.5455C6.03381 13.3598 5.5424 13.4489 5.21364 13.7705L5.17273 13.8114C4.91695 14.0674 4.56988 14.2113 4.20796 14.2113C3.84603 14.2113 3.49896 14.0674 3.24318 13.8114C2.98713 13.5556 2.84325 13.2085 2.84325 12.8466C2.84325 12.4847 2.98713 12.1376 3.24318 11.8818L3.2841 11.8409C3.60569 11.5121 3.69479 11.0208 3.5091 10.6C3.33246 10.1879 2.92794 9.91998 2.47955 9.91819H2.36364C1.61053 9.91819 1.00001 9.30768 1.00001 8.55455C1.00001 7.80144 1.61053 7.19091 2.36365 7.19091H2.42501C2.88682 7.18011 3.2951 6.8881 3.45455 6.45455C3.64024 6.03381 3.55114 5.5424 3.22955 5.21364L3.18864 5.17273C2.93258 4.91695 2.7887 4.56988 2.7887 4.20796C2.7887 3.84603 2.93258 3.49896 3.18864 3.24318C3.44442 2.98712 3.79149 2.84325 4.15341 2.84325C4.51533 2.84325 4.86241 2.98712 5.11818 3.24318L5.1591 3.2841C5.48786 3.60569 5.97926 3.69479 6.40001 3.5091H6.45455C6.86669 3.33246 7.13458 2.92794 7.13637 2.47955V2.36364C7.13637 1.61053 7.74689 1 8.50001 1.00001C9.25312 1.00001 9.86365 1.61053 9.86365 2.36364V2.425C9.86544 2.8734 10.1333 3.27791 10.5455 3.45454C10.9662 3.64023 11.4576 3.55113 11.7864 3.22954L11.8273 3.18863C12.0831 2.93257 12.4301 2.78869 12.7921 2.78869C13.154 2.78869 13.5011 2.93257 13.7568 3.18863C14.0129 3.44441 14.1568 3.79148 14.1568 4.1534C14.1568 4.51533 14.0129 4.8624 13.7568 5.11818L13.7159 5.15909C13.3943 5.48785 13.3052 5.97925 13.4909 6.4V6.45454C13.6676 6.86668 14.0721 7.13457 14.5205 7.13636H14.6364C15.3895 7.13636 16 7.74688 16 8.5C16 9.25311 15.3895 9.86364 14.6364 9.86364H14.575C14.1266 9.86543 13.7221 10.1333 13.5455 10.5455H13.5455Z" stroke="#313131" stroke-width="2" stroke-linecap="round" stroke-linejoin="round"/>
</svg>
