<svg width="29" height="30" viewBox="0 0 29 30" fill="none" xmlns="http://www.w3.org/2000/svg">
<path fill-rule="evenodd" clip-rule="evenodd" d="M6.96784 15.9959C6.74337 15.9959 6.36187 15.9975 6.0047 15.9993C6.00283 15.6289 6.0012 15.2299 6.0012 14.9999C6.0012 14.8031 6.00023 14.3911 5.99918 14.0039H6.96778C7.5275 14.0039 8.00035 14.46 8.00035 14.9999C8.00035 15.5398 7.52756 15.9959 6.96784 15.9959ZM6.9647 11.9962H4.95043C4.6975 11.9962 4.45488 12.0844 4.27625 12.2415C4.09763 12.3984 3.99773 12.6112 3.99856 12.833L4.01258 19.1689C4.01258 19.6295 4.43877 20.0029 4.96447 20.0029C5.49016 20.0029 5.91636 19.6295 5.91636 19.1689V17.2451C6.30556 17.2434 6.72132 17.2419 6.96471 17.2419C8.63722 17.2419 9.99797 16.0653 9.99797 14.619C9.99797 13.1728 8.63722 11.9962 6.96471 11.9962H6.9647Z" fill="#313131"/>
<path d="M6.0047 15.9993L5.7547 16.0006L5.75596 16.2506L6.00598 16.2493L6.0047 15.9993ZM5.99918 14.0039V13.7539H5.7485L5.74918 14.0045L5.99918 14.0039ZM4.27625 12.2415L4.44127 12.4293L4.44129 12.4292L4.27625 12.2415ZM3.99856 12.833L4.24856 12.8324L4.24855 12.832L3.99856 12.833ZM4.01258 19.1689H4.26258L4.26258 19.1683L4.01258 19.1689ZM5.91636 17.2451L5.91526 16.9951L5.66636 16.9962V17.2451H5.91636ZM6.96784 15.7459C6.74265 15.7459 6.36057 15.7475 6.00341 15.7493L6.00598 16.2493C6.36317 16.2475 6.74408 16.2459 6.96784 16.2459V15.7459ZM6.25469 15.9981C6.25283 15.6276 6.2512 15.2292 6.2512 14.9999H5.7512C5.7512 15.2306 5.75284 15.6302 5.7547 16.0006L6.25469 15.9981ZM6.2512 14.9999C6.2512 14.8027 6.25023 14.3903 6.24918 14.0032L5.74918 14.0045C5.75023 14.3919 5.7512 14.8035 5.7512 14.9999H6.2512ZM5.99918 14.2539H6.96778V13.7539H5.99918V14.2539ZM6.96778 14.2539C7.398 14.2539 7.75035 14.6065 7.75035 14.9999H8.25035C8.25035 14.3135 7.657 13.7539 6.96778 13.7539V14.2539ZM7.75035 14.9999C7.75035 15.3934 7.39803 15.7459 6.96784 15.7459V16.2459C7.65709 16.2459 8.25035 15.6863 8.25035 14.9999H7.75035ZM6.9647 11.7462H4.95043V12.2462H6.9647V11.7462ZM4.95043 11.7462C4.64097 11.7462 4.33853 11.8539 4.1112 12.0537L4.44129 12.4292C4.57123 12.315 4.75404 12.2462 4.95043 12.2462V11.7462ZM4.11122 12.0537C3.88278 12.2544 3.74745 12.5342 3.74856 12.8339L4.24855 12.832C4.24802 12.6882 4.31248 12.5424 4.44127 12.4293L4.11122 12.0537ZM3.74856 12.8335L3.76258 19.1694L4.26258 19.1683L4.24856 12.8324L3.74856 12.8335ZM3.76258 19.1689C3.76258 19.7976 4.33275 20.2529 4.96447 20.2529V19.7529C4.54478 19.7529 4.26258 19.4614 4.26258 19.1689H3.76258ZM4.96447 20.2529C5.59618 20.2529 6.16636 19.7976 6.16636 19.1689H5.66636C5.66636 19.4614 5.38415 19.7529 4.96447 19.7529V20.2529ZM6.16636 19.1689V17.2451H5.66636V19.1689H6.16636ZM5.91746 17.4951C6.30669 17.4934 6.72194 17.4919 6.96471 17.4919V16.9919C6.7207 16.9919 6.30442 16.9934 5.91526 16.9951L5.91746 17.4951ZM6.96471 17.4919C8.73994 17.4919 10.248 16.2362 10.248 14.619H9.74797C9.74797 15.8943 8.5345 16.9919 6.96471 16.9919V17.4919ZM10.248 14.619C10.248 13.0019 8.73993 11.7462 6.96471 11.7462V12.2462C8.5345 12.2462 9.74797 13.3438 9.74797 14.619H10.248ZM6.96471 11.7462H6.9647V12.2462H6.96471V11.7462Z" fill="black"/>
<path fill-rule="evenodd" clip-rule="evenodd" d="M15.1063 18.9933C14.8524 18.9976 14.4157 19.001 14.0078 19.0034C14.005 18.1947 13.9997 14.8446 13.9982 14.0042H15.0635C16.8627 14.0042 17.0024 15.9193 17.0024 16.5063C17.0024 17.7286 16.4162 18.9716 15.1063 18.9933L15.1063 18.9933ZM14.6214 11.9962H12.8477C12.6222 11.9962 12.406 12.0863 12.2467 12.2467C12.0874 12.4071 11.9981 12.6245 11.9985 12.8511C11.9985 12.8512 12.0112 19.1227 12.0112 19.1455C12.0121 19.3718 12.1023 19.5886 12.2622 19.748C12.4213 19.9067 12.6363 19.9957 12.8604 19.9957H12.8636C12.9172 19.9955 14.1824 19.9907 14.6881 19.9818C16.607 19.9481 17.9996 18.2718 17.9996 15.9959C17.9996 13.6036 16.642 11.9962 14.6214 11.9962H14.6214Z" fill="#313131"/>
<path d="M15.1063 18.9933L15.2781 19.1749L15.7457 18.7325L15.1021 18.7433L15.1063 18.9933ZM14.0078 19.0034L13.7578 19.0043L13.7586 19.2549L14.0093 19.2534L14.0078 19.0034ZM13.9982 14.0042V13.7542H13.7477L13.7482 14.0046L13.9982 14.0042ZM15.1063 18.9933L14.9345 18.8117L14.4671 19.2539L15.1104 19.2433L15.1063 18.9933ZM12.2467 12.2467L12.0693 12.0705L12.0693 12.0705L12.2467 12.2467ZM11.9985 12.8511H12.2485L12.2485 12.8506L11.9985 12.8511ZM12.0112 19.1455L11.7612 19.146L11.7612 19.1464L12.0112 19.1455ZM12.2622 19.748L12.4387 19.571L12.4387 19.571L12.2622 19.748ZM12.8636 19.9957V20.2457L12.8648 20.2457L12.8636 19.9957ZM14.6881 19.9818L14.6837 19.7318H14.6837L14.6881 19.9818ZM17.9996 15.9959H18.2496V15.9959L17.9996 15.9959ZM15.1021 18.7433C14.8498 18.7476 14.4143 18.751 14.0063 18.7534L14.0093 19.2534C14.417 19.251 14.8551 19.2476 15.1105 19.2433L15.1021 18.7433ZM14.2578 19.0026C14.255 18.1942 14.2497 14.8444 14.2482 14.0037L13.7482 14.0046C13.7497 14.8448 13.755 18.1953 13.7578 19.0043L14.2578 19.0026ZM13.9982 14.2542H15.0635V13.7542H13.9982V14.2542ZM15.0635 14.2542C15.4662 14.2542 15.7607 14.3604 15.9809 14.5165C16.2034 14.6743 16.3649 14.8938 16.4815 15.1415C16.7177 15.6435 16.7524 16.2246 16.7524 16.5063H17.2524C17.2524 16.2009 17.2173 15.531 16.9339 14.9286C16.7906 14.6242 16.5798 14.3283 16.2701 14.1086C15.958 13.8873 15.5604 13.7542 15.0635 13.7542V14.2542ZM16.7524 16.5063C16.7524 17.0822 16.6136 17.6466 16.3374 18.0615C16.0672 18.4675 15.6656 18.734 15.1022 18.7433L15.1104 19.2433C15.8569 19.2309 16.4033 18.865 16.7537 18.3385C17.0982 17.8209 17.2524 17.1526 17.2524 16.5063H16.7524ZM15.2781 19.1749L15.2781 19.1749L14.9345 18.8117L14.9345 18.8117L15.2781 19.1749ZM14.6214 11.7462H12.8477V12.2462H14.6214V11.7462ZM12.8477 11.7462C12.5555 11.7462 12.2754 11.863 12.0693 12.0705L12.424 12.4229C12.5365 12.3096 12.689 12.2462 12.8477 12.2462V11.7462ZM12.0693 12.0705C11.8632 12.278 11.748 12.559 11.7485 12.8516L12.2485 12.8506C12.2482 12.6901 12.3115 12.5362 12.4241 12.4229L12.0693 12.0705ZM11.7485 12.8511C11.7485 12.8515 11.7612 19.1235 11.7612 19.146L12.2612 19.145C12.2612 19.1219 12.2485 12.8508 12.2485 12.8511H11.7485ZM11.7612 19.1464C11.7623 19.4386 11.8788 19.7188 12.0857 19.925L12.4387 19.571C12.3258 19.4584 12.2618 19.305 12.2612 19.1446L11.7612 19.1464ZM12.0856 19.925C12.2915 20.1304 12.57 20.2457 12.8604 20.2457V19.7457C12.7027 19.7457 12.5511 19.6831 12.4387 19.571L12.0856 19.925ZM12.8604 20.2457H12.8636V19.7457H12.8604V20.2457ZM12.8648 20.2457C12.9171 20.2455 14.1846 20.2407 14.6925 20.2317L14.6837 19.7318C14.1801 19.7407 12.9173 19.7455 12.8625 19.7457L12.8648 20.2457ZM14.6925 20.2317C16.7849 20.195 18.2496 18.3676 18.2496 15.9959H17.7496C17.7496 18.176 16.429 19.7012 14.6837 19.7318L14.6925 20.2317ZM18.2496 15.9959C18.2496 14.7539 17.897 13.6928 17.2592 12.9377C16.6183 12.1789 15.7031 11.7462 14.6214 11.7462V12.2462C15.5603 12.2462 16.3341 12.6173 16.8772 13.2603C17.4234 13.9069 17.7496 14.8456 17.7496 15.996L18.2496 15.9959ZM14.6214 11.7462H14.6214V12.2462H14.6214V11.7462Z" fill="black"/>
<path fill-rule="evenodd" clip-rule="evenodd" d="M23.2094 13.6744C23.6467 13.6744 24.0012 13.2992 24.0012 12.8364C24.0012 12.3735 23.6467 11.9983 23.2094 11.9983H20.7884C20.3511 11.9983 19.9966 12.3735 19.9966 12.8364V19.1585C19.9966 19.6213 20.3511 19.9966 20.7884 19.9966C21.2258 19.9966 21.5802 19.6213 21.5802 19.1585V16.7757H23.0171C23.4544 16.7757 23.809 16.4004 23.809 15.9376C23.809 15.4748 23.4544 15.0995 23.0171 15.0995H21.5802V13.6744H23.2094Z" fill="#313131" stroke="black" stroke-width="0.5"/>
<path fill-rule="evenodd" clip-rule="evenodd" d="M26.9975 21.1418C26.9975 21.6143 26.6099 21.9986 26.1335 21.9986H2.8619C2.38546 21.9986 1.99785 21.6143 1.99785 21.1418V10.8606C1.99785 10.3881 2.38546 10.0038 2.8619 10.0038H26.1335C26.6099 10.0038 26.9975 10.3881 26.9975 10.8606V21.1418ZM23.9962 27.1054C23.9962 27.5999 23.5992 28.0022 23.1113 28.0022H5.88401C5.39604 28.0022 4.99904 27.5999 4.99904 27.1054V23.9963H23.9962L23.9962 27.1054ZM4.99905 2.91053C4.99905 2.4072 5.39605 1.99772 5.88402 1.99772H17.6655C18.3909 1.99772 19.0931 2.3091 19.5922 2.85211L23.268 6.8515C23.7376 7.36243 23.9962 8.03152 23.9962 8.73554V8.99593H4.99906L4.99905 2.91053ZM26.354 8.49609H25.7084V8.24537C25.7084 7.11557 25.2796 6.04184 24.5009 5.22187L20.8439 1.37103C20.0165 0.49974 18.8521 -1e-05 17.6493 -1e-05H5.92819C4.47179 -1e-05 3.28692 1.18282 3.28692 2.63671V8.49609H2.64127C1.18487 8.49609 0 9.67892 0 11.1328V21.6797C0 23.1336 1.18487 24.3164 2.64127 24.3164H3.28692V27.3633C3.28692 28.8172 4.47179 30 5.92819 30H23.0671C24.5235 30 25.7084 28.8172 25.7084 27.3633V24.3164H26.354C27.8104 24.3164 28.9953 23.1336 28.9953 21.6797V11.1328C28.9953 9.67892 27.8104 8.49609 26.354 8.49609Z" fill="#313131"/>
</svg>
