<svg width="45" height="45" viewBox="0 0 45 45" fill="none" xmlns="http://www.w3.org/2000/svg">
<path d="M17.9865 33.1208C15.2445 31.9545 13.0448 29.7555 11.8778 27.0135C11.289 25.626 10.9598 24.1012 10.9598 22.4992C10.9598 20.898 11.2883 19.3725 11.8778 17.9858C13.0448 15.2423 15.2438 13.0455 17.9865 11.8785C19.3733 11.2883 20.898 10.9605 22.5 10.9605C24.1012 10.9605 25.6268 11.2883 27.0135 11.8785C29.7563 13.0455 31.9538 15.243 33.1215 17.9858C33.7118 19.3725 34.0395 20.898 34.0395 22.4992C34.0395 24.1012 33.7118 25.626 33.1215 27.0135C31.9538 29.7548 29.7578 31.9545 27.0135 33.1208C25.6268 33.7103 24.1012 34.0388 22.5 34.0388C20.898 34.0388 19.3733 33.7103 17.9865 33.1208ZM0 22.5C0 34.9252 10.074 45 22.5 45C34.9268 45 45 34.9252 45 22.5C45 10.0732 34.9268 0 22.5 0C10.074 0 0 10.0732 0 22.5Z" fill="url(#paint0_linear_140_63)"/>
<path opacity="0.25" d="M6.60674 22.5002C5.98274 20.7385 5.625 18.8507 5.625 16.8752C5.625 13.6577 6.54299 10.6623 8.10524 8.104C3.25049 11.0673 0 16.3975 0 22.5002C0 28.603 3.25049 33.9332 8.10524 36.8965C6.54299 34.3382 5.625 31.3427 5.625 28.1252C5.625 26.1497 5.98199 24.2627 6.60674 22.5002Z" fill="white"/>
<path opacity="0.25" d="M45.0007 22.5002C45.0007 16.3975 41.7502 11.0673 36.897 8.104C38.4592 10.6623 39.3757 13.6577 39.3757 16.8752C39.3757 18.8507 39.018 20.7385 38.394 22.5002C39.018 24.2627 39.3757 26.1497 39.3757 28.1252C39.3757 31.3427 38.4592 34.3382 36.897 36.8965C41.7502 33.9332 45.0007 28.603 45.0007 22.5002Z" fill="white"/>
<path opacity="0.25" d="M22.5007 38.394C20.7382 39.018 18.8512 39.375 16.8757 39.375C13.6582 39.375 10.6627 38.4578 8.10449 36.8955C11.0677 41.7495 16.3987 45 22.5007 45C28.6027 45 33.9337 41.7495 36.897 36.8955C34.3387 38.4578 31.3432 39.375 28.1257 39.375C26.1502 39.375 24.2625 39.0188 22.5007 38.394Z" fill="white"/>
<path opacity="0.25" d="M13.7293 31.2713C10.4473 29.2673 7.90925 26.181 6.60575 22.5C5.9825 24.2625 5.62549 26.1488 5.62549 28.125C5.62549 31.3425 6.542 34.338 8.10425 36.8963C10.6625 38.4578 13.658 39.375 16.8755 39.375C18.851 39.375 20.7388 39.0173 22.5005 38.3948C18.8195 37.0913 15.7333 34.5525 13.7293 31.2713Z" fill="white"/>
<path opacity="0.25" d="M13.7293 31.2713C10.4473 29.2673 7.90925 26.181 6.60575 22.5C5.9825 24.2625 5.62549 26.1488 5.62549 28.125C5.62549 31.3425 6.542 34.338 8.10425 36.8963C10.6625 38.4578 13.658 39.375 16.8755 39.375C18.851 39.375 20.7388 39.0173 22.5005 38.3948C18.8195 37.0913 15.7333 34.5525 13.7293 31.2713Z" fill="white"/>
<path opacity="0.25" d="M38.3945 22.5C37.091 26.181 34.5538 29.2658 31.271 31.2713C29.267 34.5533 26.1808 37.0913 22.5005 38.394C24.263 39.018 26.15 39.375 28.1255 39.375C31.3423 39.375 34.3378 38.4585 36.896 36.8963C38.4583 34.338 39.3755 31.3425 39.3755 28.125C39.3755 26.1495 39.0185 24.2625 38.3945 22.5Z" fill="white"/>
<path opacity="0.25" d="M38.3945 22.5C37.091 26.181 34.5538 29.2658 31.271 31.2713C29.267 34.5533 26.1808 37.0913 22.5005 38.394C24.263 39.018 26.15 39.375 28.1255 39.375C31.3423 39.375 34.3378 38.4585 36.896 36.8963C38.4583 34.338 39.3755 31.3425 39.3755 28.125C39.3755 26.1495 39.0185 24.2625 38.3945 22.5Z" fill="white"/>
<path opacity="0.25" d="M17.9863 33.121C16.4698 32.6995 15.0418 32.0732 13.7285 31.2715C15.7333 34.5535 18.8188 37.0907 22.4998 38.3942C26.1808 37.0907 29.2663 34.5535 31.2703 31.2715C29.957 32.0725 28.5305 32.6995 27.0125 33.121C25.6265 33.7112 24.101 34.039 22.499 34.039C20.897 34.039 19.3738 33.7112 17.9863 33.121Z" fill="white"/>
<path opacity="0.25" d="M17.9863 33.121C16.4698 32.6995 15.0418 32.0732 13.7285 31.2715C15.7333 34.5535 18.8188 37.0907 22.4998 38.3942C26.1808 37.0907 29.2663 34.5535 31.2703 31.2715C29.957 32.0725 28.5305 32.6995 27.0125 33.121C25.6265 33.7112 24.101 34.039 22.499 34.039C20.897 34.039 19.3738 33.7112 17.9863 33.121Z" fill="white"/>
<path opacity="0.25" d="M17.9863 33.121C16.4698 32.6995 15.0418 32.0732 13.7285 31.2715C15.7333 34.5535 18.8188 37.0907 22.4998 38.3942C26.1808 37.0907 29.2663 34.5535 31.2703 31.2715C29.957 32.0725 28.5305 32.6995 27.0125 33.121C25.6265 33.7112 24.101 34.039 22.499 34.039C20.897 34.039 19.3738 33.7112 17.9863 33.121Z" fill="white"/>
<path opacity="0.25" d="M22.5007 6.60601C24.2625 5.98201 26.1502 5.625 28.1257 5.625C31.3432 5.625 34.3387 6.54225 36.897 8.1045C33.9337 3.2505 28.6027 0 22.5007 0C16.3987 0 11.0677 3.2505 8.10449 8.1045C10.6627 6.54225 13.6582 5.625 16.8757 5.625C18.8512 5.625 20.7382 5.98201 22.5007 6.60601Z" fill="white"/>
<path opacity="0.25" d="M22.5005 6.60601C20.738 5.98201 18.851 5.625 16.8755 5.625C13.658 5.625 10.6625 6.54225 8.10425 8.1045C6.542 10.6627 5.62549 13.6582 5.62549 16.875C5.62549 18.8505 5.98249 20.7383 6.60649 22.5C7.90924 18.8197 10.4473 15.7335 13.7293 13.7295C15.7333 10.4467 18.8195 7.90951 22.5005 6.60601Z" fill="white"/>
<path opacity="0.25" d="M22.5005 6.60601C20.738 5.98201 18.851 5.625 16.8755 5.625C13.658 5.625 10.6625 6.54225 8.10425 8.1045C6.542 10.6627 5.62549 13.6582 5.62549 16.875C5.62549 18.8505 5.98249 20.7383 6.60649 22.5C7.90924 18.8197 10.4473 15.7335 13.7293 13.7295C15.7333 10.4467 18.8195 7.90951 22.5005 6.60601Z" fill="white"/>
<path opacity="0.25" d="M36.896 8.10377C34.3385 6.54152 31.343 5.625 28.1255 5.625C26.1493 5.625 24.2623 5.98201 22.5005 6.60526C26.1808 7.90876 29.267 10.4468 31.271 13.7288C34.553 15.7328 37.0918 18.819 38.3945 22.5C39.0178 20.7383 39.3755 18.8505 39.3755 16.875C39.3755 13.6582 38.4583 10.662 36.896 8.10377Z" fill="white"/>
<path opacity="0.25" d="M36.896 8.10377C34.3385 6.54152 31.343 5.625 28.1255 5.625C26.1493 5.625 24.2623 5.98201 22.5005 6.60526C26.1808 7.90876 29.267 10.4468 31.271 13.7288C34.553 15.7328 37.0918 18.819 38.3945 22.5C39.0178 20.7383 39.3755 18.8505 39.3755 16.875C39.3755 13.6582 38.4583 10.662 36.896 8.10377Z" fill="white"/>
<path opacity="0.25" d="M27.0133 11.8787C28.5298 12.2995 29.9578 12.9265 31.2718 13.729C29.267 10.4462 26.1808 7.90897 22.4998 6.60547C18.8203 7.90897 15.734 10.4462 13.73 13.729C15.0433 12.9265 16.469 12.2995 17.9878 11.8787C19.3738 11.2885 20.8993 10.9615 22.5005 10.9615C24.1025 10.9622 25.6273 11.2892 27.0133 11.8787Z" fill="white"/>
<path opacity="0.25" d="M27.0133 11.8787C28.5298 12.2995 29.9578 12.9265 31.2718 13.729C29.267 10.4462 26.1808 7.90897 22.4998 6.60547C18.8203 7.90897 15.734 10.4462 13.73 13.729C15.0433 12.9265 16.469 12.2995 17.9878 11.8787C19.3738 11.2885 20.8993 10.9615 22.5005 10.9615C24.1025 10.9622 25.6273 11.2892 27.0133 11.8787Z" fill="white"/>
<path opacity="0.25" d="M27.0133 11.8787C28.5298 12.2995 29.9578 12.9265 31.2718 13.729C29.267 10.4462 26.1808 7.90897 22.4998 6.60547C18.8203 7.90897 15.734 10.4462 13.73 13.729C15.0433 12.9265 16.469 12.2995 17.9878 11.8787C19.3738 11.2885 20.8993 10.9615 22.5005 10.9615C24.1025 10.9622 25.6273 11.2892 27.0133 11.8787Z" fill="white"/>
<path opacity="0.25" d="M11.8801 17.9868C12.3009 16.4695 12.9271 15.0423 13.7296 13.729C10.4476 15.7338 7.91043 18.8192 6.60693 22.5002C7.91043 26.1812 10.4476 29.2675 13.7296 31.2715C12.9279 29.9575 12.3009 28.531 11.8801 27.013C11.2899 25.627 10.9621 24.1023 10.9621 22.4995C10.9621 20.8983 11.2899 19.3735 11.8801 17.9868Z" fill="white"/>
<path opacity="0.25" d="M11.8801 17.9868C12.3009 16.4695 12.9271 15.0423 13.7296 13.729C10.4476 15.7338 7.91043 18.8192 6.60693 22.5002C7.91043 26.1812 10.4476 29.2675 13.7296 31.2715C12.9279 29.9575 12.3009 28.531 11.8801 27.013C11.2899 25.627 10.9621 24.1023 10.9621 22.4995C10.9621 20.8983 11.2899 19.3735 11.8801 17.9868Z" fill="white"/>
<path opacity="0.25" d="M11.8801 17.9868C12.3009 16.4695 12.9271 15.0423 13.7296 13.729C10.4476 15.7338 7.91043 18.8192 6.60693 22.5002C7.91043 26.1812 10.4476 29.2675 13.7296 31.2715C12.9279 29.9575 12.3009 28.531 11.8801 27.013C11.2899 25.627 10.9621 24.1023 10.9621 22.4995C10.9621 20.8983 11.2899 19.3735 11.8801 17.9868Z" fill="white"/>
<path opacity="0.25" d="M31.272 13.729C32.0737 15.0423 32.7007 16.4695 33.1215 17.9868C33.7117 19.3735 34.0387 20.8982 34.0387 22.5002C34.0387 24.1022 33.7117 25.627 33.1215 27.013C32.7007 28.5302 32.0745 29.9582 31.272 31.2715C34.554 29.2667 37.0912 26.1812 38.3947 22.5002C37.0912 18.8192 34.554 15.7338 31.272 13.729Z" fill="white"/>
<path opacity="0.25" d="M31.272 13.729C32.0737 15.0423 32.7007 16.4695 33.1215 17.9868C33.7117 19.3735 34.0387 20.8982 34.0387 22.5002C34.0387 24.1022 33.7117 25.627 33.1215 27.013C32.7007 28.5302 32.0745 29.9582 31.272 31.2715C34.554 29.2667 37.0912 26.1812 38.3947 22.5002C37.0912 18.8192 34.554 15.7338 31.272 13.729Z" fill="white"/>
<path opacity="0.25" d="M31.272 13.729C32.0737 15.0423 32.7007 16.4695 33.1215 17.9868C33.7117 19.3735 34.0387 20.8982 34.0387 22.5002C34.0387 24.1022 33.7117 25.627 33.1215 27.013C32.7007 28.5302 32.0745 29.9582 31.272 31.2715C34.554 29.2667 37.0912 26.1812 38.3947 22.5002C37.0912 18.8192 34.554 15.7338 31.272 13.729Z" fill="white"/>
<path opacity="0.25" d="M33.1217 17.9874C32.701 16.4701 32.0748 15.0429 31.2723 13.7296C29.9583 12.9271 28.531 12.3001 27.0137 11.8794C29.7572 13.0464 31.9547 15.2446 33.1217 17.9874Z" fill="white"/>
<path opacity="0.25" d="M33.1217 17.9874C32.701 16.4701 32.0748 15.0429 31.2723 13.7296C29.9583 12.9271 28.531 12.3001 27.0137 11.8794C29.7572 13.0464 31.9547 15.2446 33.1217 17.9874Z" fill="white"/>
<path opacity="0.25" d="M33.1217 17.9874C32.701 16.4701 32.0748 15.0429 31.2723 13.7296C29.9583 12.9271 28.531 12.3001 27.0137 11.8794C29.7572 13.0464 31.9547 15.2446 33.1217 17.9874Z" fill="white"/>
<path opacity="0.25" d="M33.1217 17.9874C32.701 16.4701 32.0748 15.0429 31.2723 13.7296C29.9583 12.9271 28.531 12.3001 27.0137 11.8794C29.7572 13.0464 31.9547 15.2446 33.1217 17.9874Z" fill="white"/>
<path opacity="0.25" d="M11.8799 27.0137C12.3007 28.5309 12.9269 29.9589 13.7294 31.2722C15.0427 32.0732 16.4699 32.7002 17.9872 33.1217C15.2444 31.9547 13.0462 29.7572 11.8799 27.0137Z" fill="white"/>
<path opacity="0.25" d="M11.8799 27.0137C12.3007 28.5309 12.9269 29.9589 13.7294 31.2722C15.0427 32.0732 16.4699 32.7002 17.9872 33.1217C15.2444 31.9547 13.0462 29.7572 11.8799 27.0137Z" fill="white"/>
<path opacity="0.25" d="M11.8799 27.0137C12.3007 28.5309 12.9269 29.9589 13.7294 31.2722C15.0427 32.0732 16.4699 32.7002 17.9872 33.1217C15.2444 31.9547 13.0462 29.7572 11.8799 27.0137Z" fill="white"/>
<path opacity="0.25" d="M11.8799 27.0137C12.3007 28.5309 12.9269 29.9589 13.7294 31.2722C15.0427 32.0732 16.4699 32.7002 17.9872 33.1217C15.2444 31.9547 13.0462 29.7572 11.8799 27.0137Z" fill="white"/>
<path opacity="0.25" d="M27.0137 33.1207C28.531 32.6992 29.959 32.073 31.2723 31.2712C32.0733 29.958 32.701 28.5307 33.1225 27.0127C31.954 29.7569 29.7572 31.9545 27.0137 33.1207Z" fill="white"/>
<path opacity="0.25" d="M27.0137 33.1207C28.531 32.6992 29.959 32.073 31.2723 31.2712C32.0733 29.958 32.701 28.5307 33.1225 27.0127C31.954 29.7569 29.7572 31.9545 27.0137 33.1207Z" fill="white"/>
<path opacity="0.25" d="M27.0137 33.1207C28.531 32.6992 29.959 32.073 31.2723 31.2712C32.0733 29.958 32.701 28.5307 33.1225 27.0127C31.954 29.7569 29.7572 31.9545 27.0137 33.1207Z" fill="white"/>
<path opacity="0.25" d="M27.0137 33.1207C28.531 32.6992 29.959 32.073 31.2723 31.2712C32.0733 29.958 32.701 28.5307 33.1225 27.0127C31.954 29.7569 29.7572 31.9545 27.0137 33.1207Z" fill="white"/>
<path opacity="0.25" d="M17.9872 11.8784C16.4699 12.2992 15.0427 12.9262 13.7294 13.7287C12.9269 15.0419 12.2999 16.4692 11.8784 17.9864C13.0462 15.2437 15.2444 13.0462 17.9872 11.8784Z" fill="white"/>
<path opacity="0.25" d="M17.9872 11.8784C16.4699 12.2992 15.0427 12.9262 13.7294 13.7287C12.9269 15.0419 12.2999 16.4692 11.8784 17.9864C13.0462 15.2437 15.2444 13.0462 17.9872 11.8784Z" fill="white"/>
<path opacity="0.25" d="M17.9872 11.8784C16.4699 12.2992 15.0427 12.9262 13.7294 13.7287C12.9269 15.0419 12.2999 16.4692 11.8784 17.9864C13.0462 15.2437 15.2444 13.0462 17.9872 11.8784Z" fill="white"/>
<path opacity="0.25" d="M17.9872 11.8784C16.4699 12.2992 15.0427 12.9262 13.7294 13.7287C12.9269 15.0419 12.2999 16.4692 11.8784 17.9864C13.0462 15.2437 15.2444 13.0462 17.9872 11.8784Z" fill="white"/>
<defs>
<linearGradient id="paint0_linear_140_63" x1="22.5" y1="0" x2="22.5" y2="45" gradientUnits="userSpaceOnUse">
<stop stop-color="#0078DB"/>
<stop offset="1" stop-color="#8ACAFF"/>
</linearGradient>
</defs>
</svg>
