<svg width="192" height="383" viewBox="0 0 192 383" fill="none" xmlns="http://www.w3.org/2000/svg">
<path opacity="0.8" fill-rule="evenodd" clip-rule="evenodd" d="M192 355V383H164.001C148.538 383 136.001 370.464 136.001 355C136.001 339.536 148.538 327 164.001 327C179.464 327 192 339.536 192 355ZM124.001 354.5V355.5C124.001 370.687 111.689 383 96.501 383H69.001V354.5C69.001 339.312 81.313 327 96.501 327C111.689 327 124.001 339.312 124.001 354.5V354.5ZM55.001 354.5V383H27.501C12.313 383 0.000488281 370.687 0.000488281 355.5V354.5C0.000488281 339.312 12.313 327 27.501 327C42.689 327 55.001 339.312 55.001 354.5V354.5ZM192 262L192 290C192 305.464 179.464 318 164.001 318C148.538 318 136.001 305.464 136.001 290C136.001 274.536 148.538 262 164.001 262H192ZM96.501 262C111.689 262 124.001 274.312 124.001 289.5V290.5C124.001 305.688 111.689 318 96.501 318C81.313 318 69.001 305.688 69.001 290.5V262H96.501ZM55.001 262L55.001 290.5C55.001 305.688 42.689 318 27.501 318C12.313 318 0.000488281 305.688 0.000488281 290.5V289.5C0.000488281 274.312 12.313 262 27.501 262H55.001ZM192 197V224.5C192 239.687 179.688 251.999 164.501 251.999H163.5C148.313 251.999 136.001 239.687 136.001 224.5C136.001 209.312 148.313 197 163.5 197H192ZM96.501 197C111.689 197 124.001 209.312 124.001 224.5C124.001 239.687 111.689 251.999 96.501 251.999C81.313 251.999 69.001 239.687 69.001 224.5L69.001 197L96.501 197ZM55.001 197V224.5C55.001 239.687 42.689 251.999 27.501 251.999C12.313 251.999 0.000488281 239.687 0.000488281 224.5C0.000488281 209.312 12.313 197 27.501 197H55.001ZM192 159V187H164.001C148.538 187 136.001 174.464 136.001 159C136.001 143.536 148.538 131 164.001 131C179.464 131 192 143.536 192 159ZM124.001 158.5V159.5C124.001 174.688 111.689 187 96.501 187L69.001 187V158.5C69.001 143.312 81.313 131 96.501 131C111.689 131 124.001 143.312 124.001 158.5ZM55.001 158.5V187H27.501C12.313 187 0.000488281 174.688 0.000488281 159.5V158.5C0.000488281 143.312 12.313 131 27.501 131C42.689 131 55.001 143.312 55.001 158.5ZM192 67.0002V94.0004C192 108.911 179.912 120.999 165.001 120.999H163C148.089 120.999 136.001 108.911 136.001 94.0004C136.001 79.0883 148.089 67.0002 163 67.0002H192ZM192 -0.000274658V27.9998C192 43.4639 179.464 55.9999 164.001 55.9999C148.538 55.9999 136.001 43.4638 136.001 27.9998C136.001 12.5358 148.538 -0.000274658 164.001 -0.000274658H192Z" fill="#F0F0F0"/>
</svg>
