<svg width="192" height="383" viewBox="0 0 192 383" fill="none" xmlns="http://www.w3.org/2000/svg">
<path opacity="0.8" fill-rule="evenodd" clip-rule="evenodd" d="M-0.000488281 27.9996V-0.000488281H27.9985C43.4624 -0.000488281 55.9985 12.5356 55.9985 27.9996C55.9985 43.4636 43.4624 55.9997 27.9985 55.9997C12.5356 55.9997 -0.000488281 43.4636 -0.000488281 27.9996ZM67.9985 28.4996V27.4996C67.9985 12.3128 80.3105 -0.000478281 95.499 -0.000478281H122.999V28.4996C122.999 43.6876 110.687 55.9997 95.499 55.9997C80.3105 55.9997 67.9985 43.6876 67.9985 28.4996V28.4996ZM136.999 28.4996V-0.000488281H164.499C179.687 -0.000488281 192 12.3128 192 27.4996V28.4996C192 43.6876 179.687 55.9997 164.499 55.9997C149.311 55.9997 136.999 43.6876 136.999 28.4996V28.4996ZM-0.000488281 121V93.0003C-0.000488281 77.5362 12.5356 65.0002 27.9985 65.0002C43.4624 65.0002 55.9985 77.5362 55.9985 93.0003C55.9985 108.464 43.4624 121 27.9985 121H-0.000488281ZM95.499 121C80.3105 121 67.9985 108.688 67.9985 93.5002V92.5003C67.9985 77.3122 80.3105 65.0002 95.499 65.0002C110.687 65.0002 122.999 77.3122 122.999 92.5003V121H95.499ZM136.999 121V92.5003C136.999 77.3122 149.311 65.0002 164.499 65.0002C179.687 65.0002 192 77.3122 192 92.5003V93.5002C192 108.688 179.687 121 164.499 121H136.999ZM-0.000488281 186V158.5C-0.000488281 143.313 12.3115 131.001 27.4985 131.001H28.4995C43.6865 131.001 55.9985 143.313 55.9985 158.5C55.9985 173.688 43.6865 186 28.4995 186H-0.000488281ZM95.499 186C80.3105 186 67.9985 173.688 67.9985 158.5C67.9985 143.313 80.3105 131.001 95.499 131.001C110.687 131.001 122.999 143.313 122.999 158.5V186H95.499ZM136.999 186V158.5C136.999 143.313 149.311 131.001 164.499 131.001C179.687 131.001 192 143.313 192 158.5C192 173.688 179.687 186 164.499 186H136.999ZM-0.000488281 224V196H27.9985C43.4624 196 55.9985 208.536 55.9985 224C55.9985 239.464 43.4624 252 27.9985 252C12.5356 252 -0.000488281 239.464 -0.000488281 224ZM67.9985 224.5V223.5C67.9985 208.312 80.3105 196 95.499 196H122.999V224.5C122.999 239.688 110.687 252 95.499 252C80.3105 252 67.9985 239.688 67.9985 224.5ZM136.999 224.5V196H164.499C179.687 196 192 208.312 192 223.5V224.5C192 239.688 179.687 252 164.499 252C149.311 252 136.999 239.688 136.999 224.5ZM-0.000488281 316V289C-0.000488281 274.089 12.0879 262.001 26.9985 262.001H28.9995C43.9106 262.001 55.9985 274.089 55.9985 289C55.9985 303.912 43.9106 316 28.9995 316H-0.000488281ZM-0.000488281 383V355C-0.000488281 339.536 12.5356 327 27.9985 327C43.4624 327 55.9985 339.536 55.9985 355C55.9985 370.464 43.4624 383 27.9985 383H-0.000488281Z" fill="#F0F0F0"/>
</svg>
