<svg width="154" height="45" viewBox="0 0 154 45" fill="none" xmlns="http://www.w3.org/2000/svg">
<path d="M17.9865 33.1208C15.2445 31.9545 13.0448 29.7555 11.8778 27.0135C11.289 25.626 10.9598 24.1012 10.9598 22.4992C10.9598 20.898 11.2883 19.3725 11.8778 17.9858C13.0448 15.2423 15.2438 13.0455 17.9865 11.8785C19.3733 11.2883 20.898 10.9605 22.5 10.9605C24.1012 10.9605 25.6268 11.2883 27.0135 11.8785C29.7563 13.0455 31.9538 15.243 33.1215 17.9858C33.7118 19.3725 34.0395 20.898 34.0395 22.4992C34.0395 24.1012 33.7118 25.626 33.1215 27.0135C31.9538 29.7548 29.7578 31.9545 27.0135 33.1208C25.6268 33.7103 24.1012 34.0388 22.5 34.0388C20.898 34.0388 19.3733 33.7103 17.9865 33.1208ZM0 22.5C0 34.9252 10.074 45 22.5 45C34.9268 45 45 34.9252 45 22.5C45 10.0732 34.9268 0 22.5 0C10.074 0 0 10.0732 0 22.5Z" fill="url(#paint0_linear_2307_5571)"/>
<path opacity="0.25" d="M6.60674 22.5002C5.98274 20.7385 5.625 18.8507 5.625 16.8752C5.625 13.6577 6.54299 10.6623 8.10524 8.104C3.25049 11.0673 0 16.3975 0 22.5002C0 28.603 3.25049 33.9332 8.10524 36.8965C6.54299 34.3382 5.625 31.3427 5.625 28.1252C5.625 26.1497 5.98199 24.2627 6.60674 22.5002Z" fill="white"/>
<path opacity="0.25" d="M45.0007 22.5002C45.0007 16.3975 41.7502 11.0673 36.897 8.104C38.4592 10.6623 39.3757 13.6577 39.3757 16.8752C39.3757 18.8507 39.018 20.7385 38.394 22.5002C39.018 24.2627 39.3757 26.1497 39.3757 28.1252C39.3757 31.3427 38.4592 34.3382 36.897 36.8965C41.7502 33.9332 45.0007 28.603 45.0007 22.5002Z" fill="white"/>
<path opacity="0.25" d="M22.5007 38.394C20.7382 39.018 18.8512 39.375 16.8757 39.375C13.6582 39.375 10.6627 38.4578 8.10449 36.8955C11.0677 41.7495 16.3987 45 22.5007 45C28.6027 45 33.9337 41.7495 36.897 36.8955C34.3387 38.4578 31.3432 39.375 28.1257 39.375C26.1502 39.375 24.2625 39.0188 22.5007 38.394Z" fill="white"/>
<path opacity="0.25" d="M13.7295 31.2713C10.4475 29.2673 7.90949 26.181 6.60599 22.5C5.98274 24.2625 5.62573 26.1488 5.62573 28.125C5.62573 31.3425 6.54224 34.338 8.10449 36.8963C10.6627 38.4578 13.6582 39.375 16.8757 39.375C18.8512 39.375 20.739 39.0173 22.5007 38.3948C18.8197 37.0913 15.7335 34.5525 13.7295 31.2713Z" fill="white"/>
<path opacity="0.25" d="M13.7295 31.2713C10.4475 29.2673 7.90949 26.181 6.60599 22.5C5.98274 24.2625 5.62573 26.1488 5.62573 28.125C5.62573 31.3425 6.54224 34.338 8.10449 36.8963C10.6627 38.4578 13.6582 39.375 16.8757 39.375C18.8512 39.375 20.739 39.0173 22.5007 38.3948C18.8197 37.0913 15.7335 34.5525 13.7295 31.2713Z" fill="white"/>
<path opacity="0.25" d="M38.3947 22.5C37.0912 26.181 34.554 29.2658 31.2712 31.2713C29.2672 34.5533 26.181 37.0913 22.5007 38.394C24.2632 39.018 26.1502 39.375 28.1257 39.375C31.3425 39.375 34.338 38.4585 36.8962 36.8963C38.4585 34.338 39.3757 31.3425 39.3757 28.125C39.3757 26.1495 39.0187 24.2625 38.3947 22.5Z" fill="white"/>
<path opacity="0.25" d="M38.3947 22.5C37.0912 26.181 34.554 29.2658 31.2712 31.2713C29.2672 34.5533 26.181 37.0913 22.5007 38.394C24.2632 39.018 26.1502 39.375 28.1257 39.375C31.3425 39.375 34.338 38.4585 36.8962 36.8963C38.4585 34.338 39.3757 31.3425 39.3757 28.125C39.3757 26.1495 39.0187 24.2625 38.3947 22.5Z" fill="white"/>
<path opacity="0.25" d="M17.9864 33.121C16.4699 32.6995 15.0419 32.0732 13.7286 31.2715C15.7334 34.5535 18.8189 37.0907 22.4999 38.3942C26.1809 37.0907 29.2664 34.5535 31.2704 31.2715C29.9571 32.0725 28.5306 32.6995 27.0126 33.121C25.6266 33.7112 24.1011 34.039 22.4991 34.039C20.8971 34.039 19.3739 33.7112 17.9864 33.121Z" fill="white"/>
<path opacity="0.25" d="M17.9864 33.121C16.4699 32.6995 15.0419 32.0732 13.7286 31.2715C15.7334 34.5535 18.8189 37.0907 22.4999 38.3942C26.1809 37.0907 29.2664 34.5535 31.2704 31.2715C29.9571 32.0725 28.5306 32.6995 27.0126 33.121C25.6266 33.7112 24.1011 34.039 22.4991 34.039C20.8971 34.039 19.3739 33.7112 17.9864 33.121Z" fill="white"/>
<path opacity="0.25" d="M17.9864 33.121C16.4699 32.6995 15.0419 32.0732 13.7286 31.2715C15.7334 34.5535 18.8189 37.0907 22.4999 38.3942C26.1809 37.0907 29.2664 34.5535 31.2704 31.2715C29.9571 32.0725 28.5306 32.6995 27.0126 33.121C25.6266 33.7112 24.1011 34.039 22.4991 34.039C20.8971 34.039 19.3739 33.7112 17.9864 33.121Z" fill="white"/>
<path opacity="0.25" d="M22.5007 6.60601C24.2625 5.98201 26.1502 5.625 28.1257 5.625C31.3432 5.625 34.3387 6.54225 36.897 8.1045C33.9337 3.2505 28.6027 0 22.5007 0C16.3987 0 11.0677 3.2505 8.10449 8.1045C10.6627 6.54225 13.6582 5.625 16.8757 5.625C18.8512 5.625 20.7382 5.98201 22.5007 6.60601Z" fill="white"/>
<path opacity="0.25" d="M22.5007 6.60601C20.7382 5.98201 18.8512 5.625 16.8757 5.625C13.6582 5.625 10.6627 6.54225 8.10449 8.1045C6.54224 10.6627 5.62573 13.6582 5.62573 16.875C5.62573 18.8505 5.98273 20.7383 6.60673 22.5C7.90948 18.8197 10.4475 15.7335 13.7295 13.7295C15.7335 10.4467 18.8197 7.90951 22.5007 6.60601Z" fill="white"/>
<path opacity="0.25" d="M22.5007 6.60601C20.7382 5.98201 18.8512 5.625 16.8757 5.625C13.6582 5.625 10.6627 6.54225 8.10449 8.1045C6.54224 10.6627 5.62573 13.6582 5.62573 16.875C5.62573 18.8505 5.98273 20.7383 6.60673 22.5C7.90948 18.8197 10.4475 15.7335 13.7295 13.7295C15.7335 10.4467 18.8197 7.90951 22.5007 6.60601Z" fill="white"/>
<path opacity="0.25" d="M36.8962 8.10377C34.3387 6.54152 31.3432 5.625 28.1257 5.625C26.1495 5.625 24.2625 5.98201 22.5007 6.60526C26.181 7.90876 29.2672 10.4468 31.2712 13.7288C34.5532 15.7328 37.092 18.819 38.3947 22.5C39.018 20.7383 39.3757 18.8505 39.3757 16.875C39.3757 13.6582 38.4585 10.662 36.8962 8.10377Z" fill="white"/>
<path opacity="0.25" d="M36.8962 8.10377C34.3387 6.54152 31.3432 5.625 28.1257 5.625C26.1495 5.625 24.2625 5.98201 22.5007 6.60526C26.181 7.90876 29.2672 10.4468 31.2712 13.7288C34.5532 15.7328 37.092 18.819 38.3947 22.5C39.018 20.7383 39.3757 18.8505 39.3757 16.875C39.3757 13.6582 38.4585 10.662 36.8962 8.10377Z" fill="white"/>
<path opacity="0.25" d="M27.0135 11.8787C28.53 12.2995 29.958 12.9265 31.272 13.729C29.2672 10.4462 26.181 7.90897 22.5 6.60547C18.8205 7.90897 15.7342 10.4462 13.7302 13.729C15.0435 12.9265 16.4692 12.2995 17.988 11.8787C19.374 11.2885 20.8995 10.9615 22.5007 10.9615C24.1027 10.9622 25.6275 11.2892 27.0135 11.8787Z" fill="white"/>
<path opacity="0.25" d="M27.0135 11.8787C28.53 12.2995 29.958 12.9265 31.272 13.729C29.2672 10.4462 26.181 7.90897 22.5 6.60547C18.8205 7.90897 15.7342 10.4462 13.7302 13.729C15.0435 12.9265 16.4692 12.2995 17.988 11.8787C19.374 11.2885 20.8995 10.9615 22.5007 10.9615C24.1027 10.9622 25.6275 11.2892 27.0135 11.8787Z" fill="white"/>
<path opacity="0.25" d="M27.0135 11.8787C28.53 12.2995 29.958 12.9265 31.272 13.729C29.2672 10.4462 26.181 7.90897 22.5 6.60547C18.8205 7.90897 15.7342 10.4462 13.7302 13.729C15.0435 12.9265 16.4692 12.2995 17.988 11.8787C19.374 11.2885 20.8995 10.9615 22.5007 10.9615C24.1027 10.9622 25.6275 11.2892 27.0135 11.8787Z" fill="white"/>
<path opacity="0.25" d="M11.8799 17.9868C12.3007 16.4695 12.9269 15.0423 13.7294 13.729C10.4474 15.7338 7.91019 18.8192 6.60669 22.5002C7.91019 26.1812 10.4474 29.2675 13.7294 31.2715C12.9277 29.9575 12.3007 28.531 11.8799 27.013C11.2897 25.627 10.9619 24.1023 10.9619 22.4995C10.9619 20.8983 11.2897 19.3735 11.8799 17.9868Z" fill="white"/>
<path opacity="0.25" d="M11.8799 17.9868C12.3007 16.4695 12.9269 15.0423 13.7294 13.729C10.4474 15.7338 7.91019 18.8192 6.60669 22.5002C7.91019 26.1812 10.4474 29.2675 13.7294 31.2715C12.9277 29.9575 12.3007 28.531 11.8799 27.013C11.2897 25.627 10.9619 24.1023 10.9619 22.4995C10.9619 20.8983 11.2897 19.3735 11.8799 17.9868Z" fill="white"/>
<path opacity="0.25" d="M11.8799 17.9868C12.3007 16.4695 12.9269 15.0423 13.7294 13.729C10.4474 15.7338 7.91019 18.8192 6.60669 22.5002C7.91019 26.1812 10.4474 29.2675 13.7294 31.2715C12.9277 29.9575 12.3007 28.531 11.8799 27.013C11.2897 25.627 10.9619 24.1023 10.9619 22.4995C10.9619 20.8983 11.2897 19.3735 11.8799 17.9868Z" fill="white"/>
<path opacity="0.25" d="M31.272 13.729C32.0737 15.0423 32.7007 16.4695 33.1215 17.9868C33.7117 19.3735 34.0387 20.8982 34.0387 22.5002C34.0387 24.1022 33.7117 25.627 33.1215 27.013C32.7007 28.5302 32.0745 29.9582 31.272 31.2715C34.554 29.2667 37.0912 26.1812 38.3947 22.5002C37.0912 18.8192 34.554 15.7338 31.272 13.729Z" fill="white"/>
<path opacity="0.25" d="M31.272 13.729C32.0737 15.0423 32.7007 16.4695 33.1215 17.9868C33.7117 19.3735 34.0387 20.8982 34.0387 22.5002C34.0387 24.1022 33.7117 25.627 33.1215 27.013C32.7007 28.5302 32.0745 29.9582 31.272 31.2715C34.554 29.2667 37.0912 26.1812 38.3947 22.5002C37.0912 18.8192 34.554 15.7338 31.272 13.729Z" fill="white"/>
<path opacity="0.25" d="M31.272 13.729C32.0737 15.0423 32.7007 16.4695 33.1215 17.9868C33.7117 19.3735 34.0387 20.8982 34.0387 22.5002C34.0387 24.1022 33.7117 25.627 33.1215 27.013C32.7007 28.5302 32.0745 29.9582 31.272 31.2715C34.554 29.2667 37.0912 26.1812 38.3947 22.5002C37.0912 18.8192 34.554 15.7338 31.272 13.729Z" fill="white"/>
<path opacity="0.25" d="M33.1215 17.9874C32.7008 16.4701 32.0746 15.0429 31.2721 13.7296C29.9581 12.9271 28.5308 12.3001 27.0135 11.8794C29.757 13.0464 31.9545 15.2446 33.1215 17.9874Z" fill="white"/>
<path opacity="0.25" d="M33.1215 17.9874C32.7008 16.4701 32.0746 15.0429 31.2721 13.7296C29.9581 12.9271 28.5308 12.3001 27.0135 11.8794C29.757 13.0464 31.9545 15.2446 33.1215 17.9874Z" fill="white"/>
<path opacity="0.25" d="M33.1215 17.9874C32.7008 16.4701 32.0746 15.0429 31.2721 13.7296C29.9581 12.9271 28.5308 12.3001 27.0135 11.8794C29.757 13.0464 31.9545 15.2446 33.1215 17.9874Z" fill="white"/>
<path opacity="0.25" d="M33.1215 17.9874C32.7008 16.4701 32.0746 15.0429 31.2721 13.7296C29.9581 12.9271 28.5308 12.3001 27.0135 11.8794C29.757 13.0464 31.9545 15.2446 33.1215 17.9874Z" fill="white"/>
<path opacity="0.25" d="M11.88 27.0137C12.3008 28.5309 12.927 29.9589 13.7295 31.2722C15.0428 32.0732 16.47 32.7002 17.9873 33.1217C15.2445 31.9547 13.0463 29.7572 11.88 27.0137Z" fill="white"/>
<path opacity="0.25" d="M11.88 27.0137C12.3008 28.5309 12.927 29.9589 13.7295 31.2722C15.0428 32.0732 16.47 32.7002 17.9873 33.1217C15.2445 31.9547 13.0463 29.7572 11.88 27.0137Z" fill="white"/>
<path opacity="0.25" d="M11.88 27.0137C12.3008 28.5309 12.927 29.9589 13.7295 31.2722C15.0428 32.0732 16.47 32.7002 17.9873 33.1217C15.2445 31.9547 13.0463 29.7572 11.88 27.0137Z" fill="white"/>
<path opacity="0.25" d="M11.88 27.0137C12.3008 28.5309 12.927 29.9589 13.7295 31.2722C15.0428 32.0732 16.47 32.7002 17.9873 33.1217C15.2445 31.9547 13.0463 29.7572 11.88 27.0137Z" fill="white"/>
<path opacity="0.25" d="M27.0135 33.1207C28.5308 32.6992 29.9588 32.073 31.2721 31.2712C32.0731 29.958 32.7008 28.5307 33.1223 27.0127C31.9538 29.7569 29.757 31.9545 27.0135 33.1207Z" fill="white"/>
<path opacity="0.25" d="M27.0135 33.1207C28.5308 32.6992 29.9588 32.073 31.2721 31.2712C32.0731 29.958 32.7008 28.5307 33.1223 27.0127C31.9538 29.7569 29.757 31.9545 27.0135 33.1207Z" fill="white"/>
<path opacity="0.25" d="M27.0135 33.1207C28.5308 32.6992 29.9588 32.073 31.2721 31.2712C32.0731 29.958 32.7008 28.5307 33.1223 27.0127C31.9538 29.7569 29.757 31.9545 27.0135 33.1207Z" fill="white"/>
<path opacity="0.25" d="M27.0135 33.1207C28.5308 32.6992 29.9588 32.073 31.2721 31.2712C32.0731 29.958 32.7008 28.5307 33.1223 27.0127C31.9538 29.7569 29.757 31.9545 27.0135 33.1207Z" fill="white"/>
<path opacity="0.25" d="M17.9873 11.8784C16.47 12.2992 15.0428 12.9262 13.7295 13.7287C12.927 15.0419 12.3 16.4692 11.8785 17.9864C13.0463 15.2437 15.2445 13.0462 17.9873 11.8784Z" fill="white"/>
<path opacity="0.25" d="M17.9873 11.8784C16.47 12.2992 15.0428 12.9262 13.7295 13.7287C12.927 15.0419 12.3 16.4692 11.8785 17.9864C13.0463 15.2437 15.2445 13.0462 17.9873 11.8784Z" fill="white"/>
<path opacity="0.25" d="M17.9873 11.8784C16.47 12.2992 15.0428 12.9262 13.7295 13.7287C12.927 15.0419 12.3 16.4692 11.8785 17.9864C13.0463 15.2437 15.2445 13.0462 17.9873 11.8784Z" fill="white"/>
<path opacity="0.25" d="M17.9873 11.8784C16.47 12.2992 15.0428 12.9262 13.7295 13.7287C12.927 15.0419 12.3 16.4692 11.8785 17.9864C13.0463 15.2437 15.2445 13.0462 17.9873 11.8784Z" fill="white"/>
<path d="M53.7474 4H60.787C61.832 4 62.8081 4.1077 63.7152 4.3231C64.6419 4.51891 65.4405 4.86159 66.111 5.35114C66.8011 5.8211 67.3434 6.4575 67.7377 7.26035C68.1321 8.04362 68.3293 9.01291 68.3293 10.1682C68.3293 11.2844 68.1223 12.2537 67.7082 13.0761C67.3138 13.8985 66.7715 14.5741 66.0814 15.1028C65.3912 15.6315 64.5926 16.0232 63.6856 16.2777C62.7785 16.5323 61.8123 16.6596 60.787 16.6596H58.0954V23.1509H53.7474V4ZM60.5208 13.223C62.887 13.223 64.0701 12.2047 64.0701 10.1682C64.0701 9.16957 63.7645 8.46463 63.1532 8.05341C62.5616 7.64219 61.6842 7.43659 60.5208 7.43659H58.0954V13.223H60.5208Z" fill="#242424"/>
<path d="M78.6709 15.2203L78.2272 13.458C77.9512 12.4985 77.685 11.4802 77.4286 10.4032C77.1723 9.32622 76.916 8.28839 76.6596 7.28972H76.5413C76.3047 8.30797 76.0582 9.35559 75.8019 10.4326C75.5652 11.49 75.3089 12.4985 75.0328 13.458L74.5596 15.2203H78.6709ZM79.5582 18.5982H73.6723L72.4891 23.1509H68.0525L74.0863 4H79.3216L85.3555 23.1509H80.7414L79.5582 18.5982Z" fill="#242424"/>
<path d="M87.7585 4H92.2247L97.2529 13.5167L99.1459 17.7463H99.2642C99.1656 16.7281 99.0473 15.5924 98.9093 14.3391C98.791 13.0859 98.7318 11.8914 98.7318 10.7557V4H102.873V23.1509H98.4065L93.3783 13.6048L91.4853 9.43392H91.367C91.4656 10.4913 91.574 11.6271 91.6923 12.8411C91.8303 14.0552 91.8994 15.2301 91.8994 16.3658V23.1509H87.7585V4Z" fill="#242424"/>
<path d="M107.725 4H112.073V11.8425H112.191L117.929 4H122.721L116.894 11.6369L123.785 23.1509H119.023L114.32 15.0734L112.073 18.0107V23.1509H107.725V4Z" fill="#242424"/>
<path d="M134.063 15.2203L133.62 13.458C133.344 12.4985 133.078 11.4802 132.821 10.4032C132.565 9.32622 132.309 8.28839 132.052 7.28972H131.934C131.697 8.30797 131.451 9.35559 131.194 10.4326C130.958 11.49 130.701 12.4985 130.425 13.458L129.952 15.2203H134.063ZM134.951 18.5982H129.065L127.882 23.1509H123.445L129.479 4H134.714L140.748 23.1509H136.134L134.951 18.5982Z" fill="#242424"/>
<path d="M144.305 17.8638C144.659 18.51 145.074 18.9898 145.547 19.3031C146.02 19.6164 146.503 19.7731 146.996 19.7731C147.785 19.7731 148.376 19.5381 148.771 19.0681C149.185 18.5786 149.392 17.6974 149.392 16.4246V4H153.74V16.7771C153.74 17.6974 153.612 18.5688 153.355 19.3912C153.119 20.2136 152.744 20.9284 152.231 21.5354C151.738 22.1424 151.098 22.6222 150.309 22.9747C149.54 23.3271 148.623 23.5034 147.558 23.5034C146.079 23.5034 144.837 23.2194 143.831 22.6516C142.845 22.0837 142.017 21.2123 141.347 20.0374L144.305 17.8638Z" fill="#242424"/>
<path d="M55.7481 29.7588H52V28.4429H61.0863V29.7588H57.3382V40.7746H55.7481V29.7588Z" fill="#A1A0A0"/>
<path d="M69.8155 34.2892H71.8977C72.8695 34.2892 73.614 34.0949 74.1315 33.7064C74.6489 33.3054 74.9076 32.7038 74.9076 31.9018C74.9076 31.0872 74.6489 30.517 74.1315 30.1911C73.614 29.8653 72.8695 29.7024 71.8977 29.7024H69.8155V34.2892ZM75.059 40.7746L72.0681 35.5675H69.8155V40.7746H68.2443V28.4429H72.1249C72.7559 28.4429 73.3364 28.5055 73.8664 28.6309C74.4091 28.7436 74.8697 28.9379 75.2483 29.2136C75.6395 29.4893 75.9424 29.8465 76.1569 30.2851C76.3715 30.7237 76.4788 31.2626 76.4788 31.9018C76.4788 32.8668 76.2264 33.6375 75.7216 34.214C75.2168 34.7905 74.5416 35.1852 73.6961 35.3983L76.8384 40.7746H75.059Z" fill="#A1A0A0"/>
<path d="M89.2618 35.7555L88.675 33.8756C88.4479 33.1863 88.2333 32.5033 88.0314 31.8266C87.8295 31.1373 87.6276 30.4355 87.4256 29.7212H87.3499C87.1606 30.4355 86.965 31.1373 86.7631 31.8266C86.5612 32.5033 86.3466 33.1863 86.1195 33.8756L85.5327 35.7555H89.2618ZM89.6594 37.0149H85.1351L83.9426 40.7746H82.3335L86.5359 28.4429H88.3153L92.5178 40.7746H90.833L89.6594 37.0149Z" fill="#A1A0A0"/>
<path d="M99.199 28.4429H102.303C104.222 28.4429 105.679 28.9692 106.676 30.0219C107.673 31.0746 108.172 32.5848 108.172 34.5524C108.172 35.5299 108.045 36.4071 107.793 37.1841C107.541 37.9486 107.168 38.6003 106.676 39.1392C106.184 39.6655 105.578 40.0728 104.859 40.3611C104.14 40.6368 103.313 40.7746 102.379 40.7746H99.199V28.4429ZM102.19 39.4963C103.641 39.4963 104.726 39.064 105.446 38.1992C106.178 37.3345 106.544 36.1189 106.544 34.5524C106.544 32.9858 106.178 31.789 105.446 30.9619C104.726 30.1347 103.641 29.7212 102.19 29.7212H100.77V39.4963H102.19Z" fill="#A1A0A0"/>
<path d="M115.767 28.4429H122.922V29.7588H117.338V33.6312H122.052V34.9659H117.338V39.4399H123.112V40.7746H115.767V28.4429Z" fill="#A1A0A0"/>
<path d="M132.242 34.2892H134.325C135.296 34.2892 136.041 34.0949 136.558 33.7064C137.076 33.3054 137.335 32.7038 137.335 31.9018C137.335 31.0872 137.076 30.517 136.558 30.1911C136.041 29.8653 135.296 29.7024 134.325 29.7024H132.242V34.2892ZM137.486 40.7746L134.495 35.5675H132.242V40.7746H130.671V28.4429H134.552C135.183 28.4429 135.763 28.5055 136.293 28.6309C136.836 28.7436 137.297 28.9379 137.675 29.2136C138.066 29.4893 138.369 29.8465 138.584 30.2851C138.798 30.7237 138.906 31.2626 138.906 31.9018C138.906 32.8668 138.653 33.6375 138.149 34.214C137.644 34.7905 136.969 35.1852 136.123 35.3983L139.265 40.7746H137.486Z" fill="#A1A0A0"/>
<path d="M146.371 38.0865C146.813 38.5502 147.33 38.9261 147.924 39.2144C148.529 39.4901 149.154 39.6279 149.798 39.6279C150.618 39.6279 151.255 39.4462 151.709 39.0828C152.164 38.7068 152.391 38.218 152.391 37.6165C152.391 37.3032 152.334 37.04 152.221 36.827C152.12 36.6014 151.975 36.4134 151.785 36.263C151.609 36.1001 151.394 35.956 151.142 35.8306C150.889 35.7053 150.618 35.5737 150.328 35.4359L148.548 34.6651C148.258 34.5398 147.961 34.3894 147.659 34.214C147.356 34.0385 147.084 33.8255 146.845 33.5748C146.605 33.3242 146.409 33.0297 146.258 32.6913C146.106 32.3404 146.031 31.9394 146.031 31.4882C146.031 31.0245 146.125 30.5922 146.314 30.1911C146.516 29.7901 146.788 29.4455 147.128 29.1572C147.482 28.8564 147.892 28.6246 148.359 28.4617C148.838 28.2987 149.362 28.2173 149.93 28.2173C150.675 28.2173 151.362 28.3614 151.993 28.6496C152.624 28.9254 153.161 29.2888 153.602 29.74L152.751 30.7551C152.372 30.3916 151.949 30.1097 151.482 29.9091C151.028 29.6961 150.511 29.5896 149.93 29.5896C149.236 29.5896 148.674 29.7525 148.245 30.0783C147.829 30.3916 147.621 30.8303 147.621 31.3942C147.621 31.695 147.677 31.9519 147.791 32.165C147.917 32.3655 148.081 32.5472 148.283 32.7101C148.485 32.8605 148.706 32.9984 148.946 33.1237C149.186 33.2365 149.432 33.343 149.684 33.4432L151.444 34.1952C151.798 34.3456 152.132 34.521 152.448 34.7215C152.763 34.9095 153.035 35.1351 153.262 35.3983C153.489 35.6489 153.666 35.9497 153.792 36.3006C153.931 36.639 154 37.0337 154 37.4849C154 37.9737 153.899 38.4311 153.697 38.8572C153.508 39.2833 153.23 39.6593 152.864 39.9851C152.498 40.2984 152.057 40.5491 151.539 40.737C151.022 40.9125 150.435 41.0002 149.779 41.0002C148.908 41.0002 148.1 40.8373 147.356 40.5115C146.611 40.1856 145.967 39.7407 145.425 39.1768L146.371 38.0865Z" fill="#A1A0A0"/>
<defs>
<linearGradient id="paint0_linear_2307_5571" x1="22.5" y1="0" x2="22.5" y2="45" gradientUnits="userSpaceOnUse">
<stop stop-color="#357679"/>
<stop offset="1" stop-color="#ADD163"/>
</linearGradient>
</defs>
</svg>
