<?xml version="1.0" encoding="UTF-8"?>
<!DOCTYPE svg PUBLIC "-//W3C//DTD SVG 1.1//EN" "http://www.w3.org/Graphics/SVG/1.1/DTD/svg11.dtd">
<!-- Creator: CorelDRAW 2020 (64-Bit Evaluation Version) -->
<svg xmlns="http://www.w3.org/2000/svg" xml:space="preserve" width="16.1394mm" height="13.2288mm" version="1.1" style="shape-rendering:geometricPrecision; text-rendering:geometricPrecision; image-rendering:optimizeQuality; fill-rule:evenodd; clip-rule:evenodd"
viewBox="0 0 103.31 84.68"
 xmlns:xlink="http://www.w3.org/1999/xlink"
 xmlns:xodm="http://www.corel.com/coreldraw/odm/2003">
 <defs>
  <style type="text/css">
   <![CDATA[
    .fil1 {fill:#0066FF}
    .fil0 {fill:#E6E6E6}
   ]]>
  </style>
 </defs>
 <g id="Layer_x0020_1">
  <metadata id="CorelCorpID_0Corel-Layer"/>
  <g id="_1714159649392">
   <path class="fil0" d="M13.05 0.08c-6.22,0.62 -11.5,5.45 -12.74,11.67 -0.31,1.54 -0.33,2.14 -0.3,10.99 0.02,9.21 0.01,8.85 0.45,10.58 1.02,4.04 3.85,7.6 7.58,9.52l0.74 0.38 0.02 8.03 0.02 8.03 6.32 -7.1c3.48,-3.91 6.43,-7.24 6.57,-7.4l0.25 -0.29 0.03 -8.66c0.03,-9.5 0.01,-9.01 0.52,-11.38 1.85,-8.62 8.52,-15.6 17,-17.81 0.93,-0.24 1.32,-0.32 3.1,-0.6 0.42,-0.07 3.05,-0.11 9.48,-0.13l8.89 -0.03 -0.26 -0.33c-0.84,-1.07 -2.14,-2.28 -3.36,-3.09 -1.94,-1.3 -4.18,-2.12 -6.53,-2.37 -0.88,-0.1 -36.83,-0.09 -37.77,0.01z"/>
   <path class="fil1" d="M42.86 11.96c-3.03,0.33 -5.54,1.24 -8.06,2.9 -4.06,2.68 -6.83,7.05 -7.6,11.95 -0.15,0.98 -0.15,24.49 0,25.47 0.58,3.72 2.28,7.1 4.88,9.74 2.29,2.33 5.01,3.91 8.13,4.72 2.26,0.59 0.72,0.54 19.86,0.56l17.17 0.02c0,0 15.1,16.97 15.22,17.11l0.21 0.25 0.05 -18.78 0.96 -0.49c5.17,-2.66 8.62,-7.44 9.46,-13.16 0.14,-0.97 0.15,-1.6 0.15,-12.69 0,-12.46 0.01,-12.14 -0.39,-14.03 -0.2,-0.94 -0.67,-2.34 -1.11,-3.33 -2.32,-5.15 -7.1,-8.94 -12.58,-9.99 -1.88,-0.36 -1.52,-0.35 -24.12,-0.35 -16.64,0.01 -21.54,0.03 -22.24,0.11z"/>
  </g>
 </g>
</svg>
