<?xml version="1.0" encoding="UTF-8"?>
<!DOCTYPE svg PUBLIC "-//W3C//DTD SVG 1.1//EN" "http://www.w3.org/Graphics/SVG/1.1/DTD/svg11.dtd">
<!-- Creator: CorelDRAW 2020 (64-Bit Evaluation Version) -->
<svg xmlns="http://www.w3.org/2000/svg" xml:space="preserve" width="37.5478mm" height="13.2256mm" version="1.1" style="shape-rendering:geometricPrecision; text-rendering:geometricPrecision; image-rendering:optimizeQuality; fill-rule:evenodd; clip-rule:evenodd"
viewBox="0 0 8735.38 3076.89"
 xmlns:xlink="http://www.w3.org/1999/xlink"
 xmlns:xodm="http://www.corel.com/coreldraw/odm/2003">
 <defs>
  <style type="text/css">
   <![CDATA[
    .fil1 {fill:#0066FF}
    .fil0 {fill:#E6E6E6}
    .fil2 {fill:black;fill-rule:nonzero}
   ]]>
  </style>
 </defs>
 <g id="Layer_x0020_1">
  <metadata id="CorelCorpID_0Corel-Layer"/>
  <g id="_1671033819136">
   <g id="_1714159649392">
    <path class="fil0" d="M474.32 2.16c-226.06,22.54 -417.95,198.08 -463.04,424.14 -11.26,55.97 -12,77.77 -10.91,399.43 0.72,334.73 0.37,321.66 16.36,384.52 37.06,146.82 139.94,276.22 275.5,345.99l26.89 13.82 0.72 291.86 0.72 291.86 229.69 -258.05c126.47,-142.1 233.69,-263.12 238.79,-268.94l9.1 -10.54 1.09 -314.75c1.09,-345.27 0.37,-327.47 18.89,-413.6 67.23,-313.28 309.65,-566.96 617.86,-647.29 33.8,-8.72 47.97,-11.63 112.67,-21.8 15.26,-2.54 110.86,-4 344.55,-4.72l323.1 -1.09 -9.45 -12c-30.52,-38.9 -77.77,-82.87 -122.12,-112.3 -70.52,-47.25 -151.92,-77.05 -237.32,-86.13 -31.99,-3.63 -1338.56,-3.28 -1372.73,0.37l-0.37 -0.77z"/>
    <path class="fil1" d="M1557.73 433.93c-110.11,12 -201.36,45.06 -292.93,105.39 -147.57,97.41 -248.23,256.24 -276.22,434.31 -5.44,35.62 -5.44,890.08 0,925.7 21.08,135.19 82.87,258.05 177.37,354 83.22,84.68 182.09,142.1 295.48,171.55 82.15,21.45 26.17,19.64 721.81,20.36l624.03 0.72c0,0 548.79,616.77 553.16,621.84l7.63 9.1 1.81 -682.54 34.9 -17.8c187.91,-96.66 313.28,-270.41 343.83,-478.3 5.09,-35.25 5.44,-58.16 5.44,-461.2 0,-452.85 0.37,-441.21 -14.17,-509.92 -7.26,-34.15 -24.36,-85.06 -40.34,-121.02 -84.31,-187.16 -258.05,-324.91 -457.22,-363.07 -68.33,-13.07 -55.25,-12.73 -876.64,-12.73 -604.77,0.37 -782.86,1.09 -808.31,4l0.35 -0.4z"/>
   </g>
   <path class="fil2" d="M4422.94 2194.37l0 -1321.71 356.53 0 0 1321.71 -356.53 0zm2480.25 -659.86c0,71.89 -8.54,137.87 -25.61,198.61 -17.05,60.72 -41.36,115.88 -73.54,165.78 89.96,34.15 170.72,60.4 242.63,79.12l-145.45 259.68c-51.86,-20.03 -104.71,-41.04 -158.55,-62.72 -53.86,-21.66 -108.02,-44.97 -162.5,-69.26 -74.54,41.69 -159.9,72.89 -256.07,93.24 -96.2,20.68 -201.89,30.85 -317.12,30.85 -137.89,0 -262.31,-14.77 -373.61,-44.64 -111.3,-29.87 -206.17,-73.87 -284.29,-132.31 -78.15,-58.44 -138.54,-130.98 -180.91,-217.99 -42.34,-86.66 -63.35,-186.79 -63.35,-300.37 0,-113.6 21.01,-213.73 63.35,-300.39 42.36,-87.01 102.76,-159.55 180.91,-217.99 78.12,-58.44 173,-102.43 284.29,-132.31 111.3,-29.87 235.72,-44.64 373.61,-44.64 137.87,0 261.96,14.77 372.61,44.64 110.62,29.87 204.52,73.87 282.32,132.31 77.49,58.44 137.24,130.98 178.93,217.99 41.69,86.66 62.37,186.79 62.37,300.39zm-360.46 0c0,-49.25 -7.89,-98.5 -23.64,-147.73 -15.75,-48.93 -43.67,-92.92 -83.71,-132.31 -40.06,-39.06 -94.55,-70.59 -163.83,-95.22 -69.26,-24.29 -157.57,-36.43 -264.59,-36.43 -71.91,0 -134.94,5.58 -189.44,16.75 -54.49,11.17 -101.76,26.92 -141.5,46.62 -39.71,20.01 -73.19,43.32 -100.11,69.91 -26.94,26.59 -48.27,55.16 -64.35,85.68 -16.1,30.22 -27.59,62.05 -34.15,95.22 -6.89,32.83 -10.17,65.33 -10.17,97.5 0,32.83 3.28,65.65 10.17,99.13 6.56,33.15 18.05,65.33 34.15,95.52 16.08,30.55 37.41,59.09 64.35,85.36 26.92,26.27 60.4,49.25 100.11,68.63 39.74,19.68 86.68,35.13 141.17,46.27 54.51,11.17 117.86,16.75 189.77,16.75 38.41,0 74.19,-1.65 107.67,-4.93 33.15,-2.95 65,-8.19 95.2,-15.42 -39.71,-20.36 -78.12,-41.04 -114.9,-62.05 -36.76,-20.68 -71.56,-41.36 -104.39,-62.05l142.47 -233.41c45.32,31.2 97.83,63.35 157.59,96.2 59.74,32.5 122.44,64.65 188.75,95.85 24.31,-34.48 41.04,-70.91 49.9,-109 8.86,-38.08 13.47,-77.15 13.47,-116.86zm2192.65 295.46c0,51.21 -6.56,95.85 -20.01,133.61 -13.47,37.76 -32.5,70.26 -56.49,97.5 -23.96,27.24 -52.86,49.58 -86.34,66.3 -33.8,17.08 -70.91,30.55 -111.62,40.39 -40.69,10.17 -84.36,17.08 -130.33,20.68 -46.27,3.93 -93.9,5.91 -143.45,5.91l-958.62 0 0 -1321.71 941.87 0c37.76,0 75.84,1.65 113.93,4.93 38.06,2.95 74.52,9.19 109.32,17.73 34.45,8.54 66.63,20.68 96.5,36.11 29.87,15.45 55.81,35.46 78.15,60.42 21.99,25.27 39.39,55.14 51.86,90.59 12.47,35.13 18.73,76.82 18.73,125.09 0,86.01 -21.36,153.97 -63.7,204.52 -42.34,50.23 -109,83.71 -200.26,100.46 64.02,4.61 119.18,14.12 164.81,29.22 45.97,15.1 83.05,35.78 111.95,61.72 28.89,25.94 50.23,57.77 63.7,95.2 13.45,37.43 20.01,81.1 20.01,131.33zm-445.15 -565.33c0,-16.73 -2.63,-32.5 -7.56,-47.6 -5.26,-15.1 -14.45,-28.57 -27.89,-40.06 -13.47,-11.47 -31.85,-20.68 -54.83,-27.89 -23.31,-6.89 -52.86,-10.52 -88.64,-10.52l-526.25 0 0 248.21 526.25 0c35.78,0 65.33,-3.3 88.64,-9.54 22.99,-6.56 41.36,-15.1 54.83,-25.92 13.45,-11.17 22.64,-23.99 27.89,-39.08 4.93,-15.1 7.56,-30.85 7.56,-47.6zm82.73 523.29c0,-29.87 -5.26,-54.16 -15.45,-72.54 -10.17,-18.05 -26.27,-32.18 -47.93,-42.02 -21.99,-10.19 -50.23,-16.75 -84.71,-19.71 -34.78,-3.28 -76.15,-4.93 -124.09,-4.93l-515.73 0 0 279.71 515.73 0c47.95,0 89.31,-1.65 124.09,-4.93 34.48,-2.95 62.72,-9.84 84.71,-20.01 21.66,-10.19 37.76,-24.64 47.93,-42.69 10.19,-18.38 15.45,-42.67 15.45,-72.89z"/>
  </g>
 </g>
</svg>
